<svg id="svg" version="1.1" xmlns="http://www.w3.org/2000/svg" xmlns:xlink="http://www.w3.org/1999/xlink" width="400" height="400" viewBox="0, 0, 400,400"><g id="svgg"><path id="path0" d="M72.958 2.346 C 72.541 2.427,72.079 2.684,71.932 2.918 C 71.785 3.152,71.298 3.371,70.851 3.404 C 70.403 3.437,70.125 3.322,70.232 3.148 C 70.492 2.727,67.498 3.123,67.219 3.547 C 67.098 3.730,66.730 3.901,66.400 3.928 C 65.767 3.979,64.401 4.224,62.898 4.556 C 62.403 4.665,61.790 4.883,61.537 5.039 C 61.254 5.214,61.185 5.147,61.359 4.866 C 61.542 4.571,61.422 4.493,61.021 4.647 C 60.679 4.778,60.400 5.007,60.400 5.156 C 60.400 5.304,59.905 5.466,59.300 5.516 C 58.695 5.566,58.140 5.785,58.067 6.003 C 57.993 6.222,57.509 6.400,56.990 6.400 C 56.472 6.400,55.934 6.583,55.796 6.807 C 55.658 7.030,55.390 7.117,55.200 7.000 C 55.010 6.883,54.740 6.973,54.600 7.200 C 54.460 7.427,54.177 7.509,53.972 7.383 C 53.768 7.256,53.600 7.373,53.600 7.643 C 53.600 7.913,53.482 8.015,53.337 7.870 C 53.192 7.725,52.850 7.792,52.578 8.019 C 52.305 8.245,51.671 8.509,51.170 8.606 C 50.669 8.702,50.156 8.920,50.029 9.091 C 49.903 9.261,49.440 9.463,49.000 9.540 C 48.560 9.617,48.068 9.887,47.906 10.140 C 47.744 10.393,47.609 10.452,47.606 10.271 C 47.603 10.091,47.317 10.226,46.971 10.571 C 46.626 10.917,45.996 11.200,45.571 11.200 C 45.147 11.200,44.800 11.380,44.800 11.600 C 44.800 11.820,44.545 12.000,44.232 12.000 C 43.357 12.000,41.205 13.341,41.203 13.887 C 41.201 14.156,40.963 14.284,40.674 14.173 C 40.385 14.062,39.665 14.419,39.074 14.966 C 38.483 15.514,38.000 15.846,38.000 15.704 C 38.000 15.563,37.717 15.796,37.370 16.224 C 37.024 16.651,36.875 16.730,37.039 16.400 C 37.292 15.892,36.187 16.613,35.200 17.600 C 35.090 17.710,34.370 18.234,33.600 18.765 C 31.779 20.019,31.418 20.328,28.800 22.864 C 27.590 24.036,26.420 25.004,26.200 25.016 C 25.980 25.027,25.845 25.253,25.900 25.518 C 25.955 25.783,25.775 25.955,25.500 25.900 C 25.225 25.845,25.045 26.025,25.100 26.300 C 25.155 26.575,24.936 26.800,24.614 26.800 C 24.292 26.800,23.816 27.205,23.557 27.700 C 23.297 28.195,22.571 29.066,21.942 29.636 C 21.314 30.205,20.798 30.835,20.796 31.036 C 20.794 31.236,20.256 31.824,19.599 32.343 C 18.943 32.861,18.512 33.458,18.643 33.670 C 18.774 33.881,18.502 34.153,18.040 34.274 C 17.578 34.394,17.200 34.683,17.200 34.915 C 17.200 35.147,16.885 35.697,16.500 36.137 C 15.981 36.731,15.955 36.860,16.400 36.639 C 16.730 36.475,16.640 36.632,16.200 36.988 C 15.760 37.343,15.400 37.766,15.400 37.927 C 15.400 38.087,14.995 38.653,14.500 39.185 C 13.644 40.103,13.433 40.586,13.563 41.330 C 13.594 41.511,13.435 41.545,13.210 41.406 C 12.797 41.151,12.633 41.694,12.791 42.800 C 12.838 43.130,12.737 43.263,12.566 43.095 C 12.204 42.738,10.017 46.294,10.007 47.257 C 10.003 47.619,9.704 48.028,9.343 48.167 C 8.981 48.305,8.794 48.528,8.927 48.660 C 9.060 48.793,8.727 49.693,8.187 50.660 C 7.648 51.627,7.234 52.549,7.269 52.709 C 7.401 53.322,6.695 55.200,6.333 55.200 C 6.124 55.200,6.056 55.368,6.183 55.572 C 6.309 55.777,6.227 56.060,6.000 56.200 C 5.773 56.340,5.685 56.615,5.806 56.809 C 6.132 57.337,5.570 59.229,5.162 58.976 C 4.968 58.857,4.916 59.038,5.047 59.379 C 5.178 59.721,5.092 60.000,4.855 60.000 C 4.619 60.000,4.529 60.270,4.655 60.600 C 4.782 60.930,4.716 61.200,4.509 61.200 C 4.113 61.200,3.981 61.864,4.003 63.729 C 4.011 64.350,3.869 64.766,3.689 64.655 C 3.508 64.543,3.316 65.110,3.261 65.915 C 3.207 66.720,2.933 67.653,2.651 67.989 C 2.060 68.696,1.866 70.530,2.420 70.188 C 2.822 69.939,2.482 71.130,1.953 71.823 C 1.776 72.055,1.645 73.495,1.662 75.023 C 1.703 78.575,1.381 80.665,0.612 81.838 C -0.286 83.209,-0.326 316.724,0.572 318.114 C 1.281 319.213,1.740 321.928,1.690 324.722 C 1.668 325.889,1.904 327.561,2.213 328.438 C 2.523 329.315,2.612 329.931,2.412 329.808 C 1.870 329.472,2.069 331.280,2.674 332.189 C 2.963 332.623,3.200 333.352,3.200 333.809 C 3.200 334.266,3.425 334.882,3.700 335.179 C 4.100 335.610,4.100 335.661,3.700 335.435 C 3.425 335.280,3.200 335.343,3.200 335.576 C 3.200 335.809,3.380 336.000,3.600 336.000 C 3.820 336.000,4.000 336.504,4.000 337.120 C 4.000 337.736,4.191 338.431,4.425 338.665 C 4.659 338.899,4.866 339.649,4.886 340.331 C 4.905 341.014,5.061 341.486,5.232 341.380 C 5.558 341.179,6.097 342.471,5.932 343.059 C 5.879 343.246,6.249 344.300,6.755 345.400 C 7.260 346.500,7.707 347.580,7.748 347.800 C 7.789 348.020,7.963 348.425,8.135 348.700 C 8.307 348.975,8.341 349.200,8.211 349.200 C 8.081 349.200,8.427 350.010,8.979 351.000 C 9.532 351.990,9.866 352.800,9.722 352.800 C 9.578 352.800,9.854 353.218,10.334 353.730 C 10.814 354.241,11.086 354.781,10.937 354.930 C 10.788 355.078,10.887 355.200,11.157 355.200 C 11.427 355.200,11.555 355.349,11.442 355.531 C 11.330 355.714,11.771 356.447,12.424 357.162 C 13.076 357.876,13.524 358.599,13.419 358.770 C 13.314 358.940,13.557 359.432,13.959 359.864 C 14.362 360.296,15.005 361.312,15.389 362.121 C 15.775 362.934,16.275 363.477,16.506 363.335 C 16.743 363.188,16.805 363.268,16.648 363.522 C 16.497 363.767,16.888 364.470,17.518 365.084 C 18.148 365.698,18.779 366.517,18.920 366.904 C 19.062 367.291,19.408 367.561,19.689 367.504 C 19.970 367.447,20.175 367.713,20.145 368.096 C 20.115 368.478,20.250 368.693,20.445 368.572 C 20.640 368.451,20.800 368.621,20.800 368.949 C 20.800 369.278,21.160 369.660,21.600 369.800 C 22.040 369.940,22.400 370.216,22.400 370.413 C 22.400 370.611,23.930 372.320,25.800 374.211 C 27.670 376.103,29.200 377.819,29.200 378.025 C 29.200 378.231,29.560 378.400,30.000 378.400 C 30.440 378.400,30.800 378.580,30.800 378.800 C 30.800 379.020,31.065 379.200,31.388 379.200 C 31.711 379.200,32.386 379.759,32.888 380.442 C 33.390 381.124,34.554 382.039,35.475 382.474 C 36.397 382.909,37.445 383.714,37.805 384.264 C 38.184 384.842,38.698 385.171,39.026 385.045 C 39.337 384.926,40.046 385.283,40.602 385.838 C 41.157 386.394,41.949 386.913,42.361 386.992 C 43.330 387.179,44.800 388.099,44.800 388.520 C 44.800 388.700,44.965 388.745,45.168 388.620 C 45.370 388.495,45.799 388.656,46.120 388.977 C 46.442 389.299,46.831 389.436,46.985 389.282 C 47.139 389.127,47.493 389.313,47.772 389.694 C 48.050 390.075,48.648 390.443,49.100 390.512 C 49.552 390.581,50.201 390.869,50.541 391.151 C 50.882 391.434,51.484 391.727,51.880 391.802 C 52.276 391.877,52.690 391.974,52.800 392.017 C 52.910 392.060,53.135 392.073,53.300 392.047 C 53.465 392.021,53.600 392.180,53.600 392.400 C 53.600 392.620,53.735 392.762,53.900 392.715 C 54.065 392.668,54.574 392.838,55.031 393.092 C 55.488 393.346,56.388 393.640,57.031 393.744 C 57.674 393.849,58.200 393.963,58.200 393.998 C 58.200 394.033,58.470 394.131,58.800 394.216 C 60.249 394.589,61.048 394.741,61.724 394.769 C 62.147 394.787,62.333 394.984,62.174 395.243 C 61.989 395.541,62.178 395.597,62.750 395.416 C 63.261 395.254,63.600 395.320,63.600 395.581 C 63.600 395.826,64.034 395.937,64.593 395.835 C 65.140 395.736,65.692 395.826,65.821 396.034 C 65.950 396.243,66.218 396.313,66.416 396.190 C 66.615 396.067,67.206 396.247,67.730 396.591 C 68.383 397.019,69.157 397.139,70.196 396.974 C 71.190 396.816,71.815 396.901,72.013 397.222 C 72.180 397.491,72.830 397.693,73.458 397.672 C 74.086 397.651,76.130 397.671,78.000 397.717 C 82.472 397.826,318.048 397.825,322.200 397.716 C 323.960 397.670,325.914 397.649,326.542 397.671 C 327.170 397.693,327.824 397.484,327.995 397.208 C 328.207 396.866,328.888 396.776,330.125 396.928 C 331.445 397.089,332.076 396.990,332.428 396.566 C 332.703 396.235,333.235 396.084,333.656 396.218 C 334.065 396.348,334.400 396.274,334.400 396.053 C 334.400 395.833,334.850 395.735,335.400 395.834 C 335.965 395.937,336.400 395.826,336.400 395.581 C 336.400 395.320,336.739 395.254,337.250 395.416 C 337.876 395.615,338.018 395.552,337.788 395.180 C 337.560 394.812,337.709 394.735,338.337 394.900 C 338.812 395.024,339.200 394.951,339.200 394.739 C 339.200 394.527,339.388 394.469,339.618 394.611 C 339.847 394.753,340.332 394.628,340.694 394.334 C 341.061 394.037,341.231 394.005,341.077 394.261 C 340.921 394.522,341.715 394.375,342.899 393.926 C 344.053 393.487,345.113 392.941,345.254 392.713 C 345.395 392.484,345.696 392.412,345.923 392.552 C 346.150 392.693,346.619 392.524,346.965 392.178 C 347.311 391.832,347.746 391.643,347.932 391.758 C 348.118 391.873,348.696 391.668,349.217 391.303 C 349.738 390.938,350.469 390.617,350.841 390.590 C 351.213 390.562,351.820 390.237,352.191 389.866 C 352.561 389.496,353.031 389.296,353.235 389.422 C 353.439 389.548,353.709 389.381,353.836 389.051 C 353.963 388.721,354.321 388.548,354.633 388.668 C 354.945 388.788,355.200 388.707,355.200 388.488 C 355.200 388.067,357.872 386.667,358.678 386.667 C 358.941 386.667,359.121 386.562,359.078 386.433 C 359.035 386.305,359.148 386.200,359.328 386.200 C 359.509 386.200,359.835 385.881,360.053 385.492 C 360.271 385.102,360.595 384.874,360.774 384.984 C 360.953 385.095,361.572 384.747,362.150 384.212 C 362.727 383.676,363.205 383.365,363.212 383.519 C 363.219 383.674,363.410 383.481,363.637 383.092 C 363.864 382.702,364.187 382.469,364.356 382.573 C 364.525 382.677,365.279 382.191,366.031 381.493 C 366.784 380.795,367.540 380.265,367.711 380.315 C 367.882 380.366,368.127 380.136,368.254 379.804 C 368.381 379.472,368.707 379.200,368.979 379.200 C 369.250 379.200,370.045 378.570,370.745 377.800 C 371.446 377.030,372.225 376.400,372.476 376.400 C 372.728 376.400,372.822 376.289,372.686 376.152 C 372.389 375.855,373.374 374.800,373.948 374.800 C 374.171 374.800,374.481 374.592,374.638 374.338 C 374.829 374.030,374.737 373.981,374.362 374.191 C 374.053 374.364,374.250 374.055,374.800 373.504 C 375.350 372.954,375.935 372.580,376.100 372.675 C 376.265 372.770,376.400 372.556,376.400 372.200 C 376.400 371.844,376.581 371.665,376.803 371.802 C 377.024 371.939,377.328 371.724,377.476 371.325 C 377.625 370.926,378.074 370.365,378.474 370.077 C 378.873 369.790,379.200 369.340,379.200 369.077 C 379.200 368.815,379.875 368.002,380.700 367.271 C 381.525 366.540,381.930 366.076,381.600 366.240 C 380.908 366.583,381.886 365.325,383.900 363.281 C 385.085 362.078,385.272 361.731,385.164 360.936 C 385.144 360.791,385.418 360.510,385.773 360.311 C 386.127 360.113,386.312 359.782,386.185 359.575 C 386.057 359.369,386.143 359.200,386.376 359.200 C 386.609 359.200,386.779 359.065,386.753 358.900 C 386.620 358.061,386.849 357.583,387.262 357.838 C 387.539 358.009,387.615 357.948,387.453 357.686 C 387.304 357.445,387.580 356.877,388.067 356.424 C 388.553 355.971,388.782 355.597,388.575 355.594 C 388.369 355.591,388.400 355.456,388.644 355.294 C 389.218 354.914,390.400 352.608,390.400 351.869 C 390.400 351.555,390.659 351.083,390.976 350.820 C 391.293 350.557,391.467 350.119,391.363 349.847 C 391.258 349.575,391.623 348.688,392.174 347.876 C 392.725 347.064,393.046 346.397,392.888 346.394 C 392.730 346.391,392.781 346.256,393.003 346.094 C 393.397 345.807,394.728 342.363,395.001 340.922 C 395.077 340.525,395.164 340.200,395.195 340.200 C 395.226 340.200,395.312 339.576,395.386 338.813 C 395.460 338.051,395.720 337.360,395.963 337.279 C 396.206 337.198,396.306 336.972,396.186 336.777 C 396.065 336.582,396.265 335.967,396.630 335.411 C 396.995 334.854,397.199 334.039,397.084 333.600 C 396.969 333.160,397.032 332.704,397.223 332.586 C 397.414 332.468,397.558 331.613,397.544 330.686 C 397.511 328.612,397.655 327.975,398.314 327.267 C 398.596 326.964,398.726 326.398,398.603 326.011 C 398.014 324.153,398.493 319.562,399.428 318.114 C 400.291 316.778,400.291 83.222,399.428 81.886 C 398.507 80.459,397.953 75.048,398.617 73.972 C 398.738 73.777,398.634 73.238,398.386 72.775 C 398.139 72.312,397.852 71.093,397.750 70.066 C 397.648 69.040,397.455 67.930,397.321 67.600 C 397.187 67.270,397.115 66.694,397.160 66.319 C 397.206 65.945,396.940 65.174,396.568 64.607 C 396.196 64.039,395.999 63.468,396.130 63.337 C 396.261 63.206,396.098 62.576,395.768 61.938 C 395.437 61.299,395.266 60.617,395.386 60.422 C 395.507 60.228,395.469 60.008,395.302 59.934 C 394.890 59.751,393.600 55.895,393.600 54.846 C 393.600 54.381,393.409 54.000,393.176 54.000 C 392.943 54.000,392.855 53.835,392.980 53.632 C 393.105 53.430,392.923 52.980,392.575 52.632 C 392.227 52.285,392.059 52.000,392.200 52.000 C 392.341 52.000,392.182 51.725,391.846 51.388 C 391.509 51.052,391.335 50.514,391.458 50.192 C 391.586 49.859,391.396 49.497,391.019 49.352 C 390.653 49.212,390.447 48.856,390.560 48.561 C 390.673 48.267,390.590 47.917,390.376 47.785 C 390.162 47.653,390.087 47.383,390.209 47.185 C 390.331 46.988,390.082 46.608,389.655 46.342 C 389.229 46.075,388.971 45.619,389.083 45.329 C 389.194 45.038,389.076 44.800,388.819 44.800 C 388.563 44.800,388.458 44.630,388.586 44.423 C 388.714 44.216,388.274 43.490,387.609 42.809 C 386.944 42.129,386.400 41.213,386.400 40.774 C 386.400 40.334,386.131 39.872,385.802 39.746 C 385.474 39.619,385.295 39.370,385.405 39.192 C 385.597 38.882,383.725 36.344,383.100 36.067 C 382.935 35.993,382.800 35.738,382.800 35.500 C 382.800 35.262,382.543 34.782,382.228 34.434 C 381.913 34.085,381.193 33.297,380.628 32.682 C 380.063 32.067,379.600 31.437,379.599 31.282 C 379.599 31.127,378.881 30.325,378.004 29.500 C 377.128 28.675,376.526 28.000,376.667 28.000 C 376.808 28.000,376.602 27.644,376.209 27.209 C 375.815 26.775,375.333 26.518,375.137 26.639 C 374.941 26.760,374.830 26.621,374.890 26.330 C 374.951 26.038,374.799 25.837,374.553 25.882 C 374.308 25.927,373.055 24.802,371.769 23.382 C 370.483 21.962,369.109 20.800,368.715 20.800 C 368.322 20.800,368.000 20.542,368.000 20.227 C 368.000 19.912,367.657 19.545,367.237 19.412 C 366.817 19.279,366.373 18.906,366.250 18.585 C 366.126 18.263,365.749 18.000,365.413 18.000 C 365.076 18.000,364.800 17.850,364.800 17.668 C 364.800 17.485,364.305 17.080,363.700 16.768 C 363.095 16.455,362.282 15.914,361.893 15.564 C 361.505 15.214,360.695 14.674,360.093 14.364 C 359.492 14.054,358.651 13.485,358.225 13.100 C 357.798 12.715,357.042 12.400,356.544 12.400 C 356.047 12.400,355.456 12.085,355.232 11.700 C 355.008 11.315,354.816 11.180,354.806 11.400 C 354.796 11.620,354.642 11.571,354.464 11.291 C 354.287 11.010,353.705 10.697,353.172 10.595 C 352.639 10.492,352.142 10.225,352.067 10.001 C 351.993 9.778,351.740 9.714,351.505 9.859 C 351.271 10.004,350.881 9.859,350.639 9.538 C 350.108 8.832,346.990 7.543,346.645 7.888 C 346.510 8.023,346.400 7.893,346.400 7.600 C 346.400 7.307,346.282 7.185,346.137 7.330 C 345.992 7.475,345.632 7.393,345.337 7.148 C 345.042 6.903,344.800 6.819,344.800 6.961 C 344.800 7.104,344.260 6.941,343.600 6.600 C 342.940 6.259,342.397 6.119,342.394 6.290 C 342.391 6.460,342.238 6.364,342.055 6.075 C 341.872 5.786,341.154 5.534,340.461 5.514 C 339.767 5.494,339.200 5.315,339.200 5.116 C 339.200 4.916,339.032 4.856,338.828 4.983 C 338.623 5.109,338.349 5.042,338.220 4.832 C 338.090 4.622,337.673 4.452,337.292 4.452 C 336.911 4.453,336.060 4.346,335.400 4.215 C 334.740 4.084,333.930 3.955,333.600 3.928 C 333.270 3.901,332.902 3.730,332.781 3.547 C 332.502 3.123,329.508 2.727,329.768 3.148 C 330.085 3.661,328.522 3.399,327.829 2.824 C 327.386 2.457,326.183 2.329,323.896 2.406 C 322.083 2.468,320.240 2.471,319.800 2.413 C 317.580 2.122,83.935 2.041,82.212 2.330 C 81.105 2.516,78.741 2.563,76.958 2.434 C 75.175 2.305,73.375 2.266,72.958 2.346 M317.600 30.452 C 317.600 30.591,318.790 30.643,320.245 30.569 C 322.173 30.470,323.049 30.592,323.474 31.017 C 324.132 31.674,324.979 31.813,324.601 31.201 C 324.439 30.940,324.692 30.931,325.336 31.176 C 325.876 31.381,326.420 31.447,326.545 31.322 C 326.669 31.197,327.410 31.398,328.190 31.769 C 328.970 32.139,329.795 32.327,330.022 32.186 C 330.249 32.046,330.695 32.147,331.012 32.410 C 331.330 32.674,331.849 32.790,332.166 32.669 C 332.482 32.547,332.955 32.705,333.216 33.019 C 333.477 33.334,333.838 33.500,334.018 33.389 C 334.198 33.278,334.460 33.373,334.600 33.600 C 334.740 33.827,335.010 33.917,335.200 33.800 C 335.390 33.683,335.660 33.773,335.800 34.000 C 335.940 34.227,336.223 34.309,336.428 34.183 C 336.632 34.056,336.800 34.154,336.800 34.400 C 336.800 34.646,336.968 34.744,337.172 34.617 C 337.377 34.491,337.660 34.573,337.800 34.800 C 337.940 35.027,338.223 35.109,338.428 34.983 C 338.632 34.856,338.800 34.954,338.800 35.200 C 338.800 35.446,338.980 35.536,339.200 35.400 C 339.420 35.264,339.600 35.354,339.600 35.600 C 339.600 35.846,339.780 35.936,340.000 35.800 C 340.220 35.664,340.400 35.735,340.400 35.958 C 340.400 36.269,342.912 37.677,344.400 38.199 C 345.513 38.589,345.953 38.953,345.736 39.304 C 345.591 39.539,345.667 39.606,345.909 39.456 C 346.475 39.107,350.056 41.527,350.288 42.416 C 350.387 42.792,350.944 43.348,351.526 43.650 C 352.109 43.953,353.619 45.280,354.883 46.600 C 356.147 47.920,357.545 49.379,357.991 49.842 C 358.436 50.305,358.800 50.882,358.800 51.123 C 358.800 51.364,359.458 52.200,360.261 52.981 C 361.065 53.761,361.560 54.403,361.361 54.406 C 361.163 54.409,361.184 54.544,361.409 54.706 C 362.003 55.132,363.393 57.347,363.289 57.700 C 363.240 57.865,363.380 58.000,363.600 58.000 C 363.820 58.000,363.981 58.135,363.957 58.300 C 363.870 58.904,364.503 60.400,364.847 60.400 C 365.041 60.400,365.200 60.747,365.200 61.171 C 365.200 61.596,365.446 62.189,365.747 62.490 C 366.261 63.003,366.835 64.345,367.042 65.514 C 367.380 67.419,368.205 70.000,368.476 70.000 C 368.654 70.000,368.800 70.529,368.800 71.176 C 368.800 71.823,368.954 72.448,369.143 72.565 C 369.331 72.681,369.486 73.605,369.486 74.617 C 369.486 75.754,369.725 76.697,370.112 77.084 C 370.571 77.543,370.643 77.962,370.379 78.655 C 370.137 79.293,370.163 79.600,370.459 79.600 C 370.777 79.600,370.777 79.746,370.458 80.130 C 369.939 80.755,369.824 313.776,370.340 317.900 C 370.512 319.275,370.511 320.400,370.336 320.400 C 370.162 320.400,370.181 320.825,370.379 321.345 C 370.635 322.018,370.576 322.452,370.176 322.853 C 369.867 323.162,369.581 324.274,369.541 325.324 C 369.494 326.586,369.254 327.359,368.835 327.605 C 368.418 327.848,368.377 327.980,368.714 327.988 C 369.104 327.997,369.125 328.193,368.800 328.800 C 368.565 329.240,368.490 329.600,368.635 329.600 C 368.780 329.600,368.680 329.862,368.415 330.182 C 368.149 330.503,368.040 330.940,368.172 331.155 C 368.305 331.369,368.227 331.660,368.000 331.800 C 367.773 331.940,367.683 332.210,367.800 332.400 C 367.917 332.590,367.830 332.858,367.607 332.996 C 367.383 333.134,367.200 333.674,367.200 334.195 C 367.200 334.716,366.956 335.387,366.657 335.686 C 366.358 335.985,365.863 336.943,365.557 337.815 C 365.251 338.687,364.773 339.640,364.496 339.932 C 364.219 340.225,364.095 340.630,364.220 340.832 C 364.345 341.035,364.246 341.200,364.000 341.200 C 363.754 341.200,363.664 341.380,363.800 341.600 C 363.936 341.820,363.846 342.000,363.600 342.000 C 363.354 342.000,363.252 342.161,363.374 342.358 C 363.496 342.555,363.326 342.819,362.998 342.946 C 362.669 343.072,362.400 343.461,362.400 343.811 C 362.400 344.161,362.222 344.337,362.005 344.203 C 361.778 344.063,361.711 344.223,361.847 344.579 C 361.978 344.921,361.886 345.200,361.643 345.200 C 361.399 345.200,361.200 345.476,361.200 345.813 C 361.200 346.149,360.930 346.529,360.600 346.655 C 360.270 346.782,360.000 347.136,360.000 347.443 C 360.000 347.749,359.809 348.000,359.576 348.000 C 359.343 348.000,359.257 348.168,359.384 348.374 C 359.511 348.580,358.982 349.231,358.207 349.821 C 357.433 350.412,356.800 351.106,356.800 351.364 C 356.800 351.992,353.506 355.200,352.861 355.200 C 352.582 355.200,352.464 355.380,352.600 355.600 C 352.736 355.820,352.595 356.000,352.287 356.000 C 351.979 356.000,350.680 356.983,349.399 358.184 C 348.119 359.385,346.920 360.274,346.736 360.160 C 346.551 360.046,346.400 360.143,346.400 360.376 C 346.400 360.609,346.130 360.800,345.800 360.800 C 345.470 360.800,345.200 361.064,345.200 361.387 C 345.200 361.721,344.963 361.884,344.652 361.764 C 344.350 361.649,343.831 361.826,343.499 362.158 C 343.167 362.490,342.784 362.650,342.648 362.514 C 342.511 362.378,342.400 362.507,342.400 362.800 C 342.400 363.093,342.295 363.228,342.166 363.099 C 342.037 362.971,340.912 363.480,339.666 364.232 C 338.420 364.983,337.085 365.598,336.700 365.599 C 336.315 365.600,336.000 365.795,336.000 366.033 C 336.000 366.272,335.775 366.387,335.500 366.289 C 335.225 366.191,334.319 366.453,333.486 366.871 C 332.654 367.288,331.779 367.510,331.542 367.364 C 331.305 367.217,330.967 367.331,330.790 367.615 C 330.614 367.900,329.825 368.133,329.035 368.133 C 328.246 368.133,327.600 368.268,327.600 368.433 C 327.600 368.598,326.745 368.692,325.700 368.641 C 324.457 368.581,323.395 368.793,322.628 369.254 C 321.984 369.641,321.325 369.877,321.164 369.778 C 320.886 369.606,79.555 369.504,78.910 369.676 C 78.384 369.816,76.800 369.166,76.800 368.810 C 76.800 368.625,75.810 368.539,74.600 368.619 C 73.390 368.698,72.400 368.602,72.400 368.406 C 72.400 368.209,71.905 368.096,71.300 368.155 C 70.695 368.214,69.840 368.077,69.400 367.850 C 68.960 367.623,68.420 367.426,68.200 367.413 C 67.492 367.370,64.616 366.308,64.100 365.899 C 63.825 365.681,63.600 365.618,63.600 365.759 C 63.600 365.901,62.835 365.626,61.900 365.149 C 60.965 364.672,60.149 364.315,60.086 364.355 C 60.023 364.396,59.693 364.150,59.353 363.811 C 59.014 363.471,58.570 363.295,58.368 363.420 C 58.165 363.545,58.000 363.457,58.000 363.224 C 58.000 362.991,57.730 362.800,57.400 362.800 C 57.070 362.800,56.800 362.609,56.800 362.376 C 56.800 362.143,56.620 362.064,56.400 362.200 C 56.180 362.336,56.000 362.257,56.000 362.024 C 56.000 361.791,55.724 361.600,55.387 361.600 C 55.051 361.600,54.676 361.341,54.554 361.025 C 54.433 360.709,54.119 360.533,53.856 360.634 C 53.594 360.734,52.337 359.823,51.062 358.608 C 49.788 357.394,48.477 356.400,48.149 356.400 C 47.821 356.400,47.635 356.265,47.734 356.100 C 47.834 355.935,47.665 355.568,47.358 355.284 C 47.051 355.001,46.799 354.911,46.797 355.084 C 46.795 355.258,45.810 354.320,44.606 353.000 C 43.403 351.680,42.144 350.315,41.809 349.966 C 41.474 349.618,41.200 349.157,41.200 348.942 C 41.200 348.727,40.885 348.202,40.500 347.775 C 39.103 346.227,37.418 343.804,37.332 343.220 C 37.284 342.891,36.920 342.384,36.522 342.094 C 36.125 341.803,35.852 341.438,35.916 341.283 C 36.099 340.834,34.718 338.000,34.316 338.000 C 34.116 338.000,34.062 337.824,34.195 337.608 C 34.443 337.206,33.740 335.571,33.151 335.183 C 32.970 335.064,32.709 334.254,32.571 333.383 C 32.433 332.512,32.143 331.469,31.927 331.065 C 31.711 330.661,31.455 329.851,31.359 329.265 C 31.263 328.679,31.070 327.660,30.932 327.000 C 30.647 325.643,30.379 324.043,30.312 323.300 C 30.287 323.025,30.097 322.800,29.890 322.800 C 29.682 322.800,29.586 322.170,29.676 321.400 C 29.766 320.630,29.673 320.000,29.471 320.000 C 29.268 320.000,29.301 319.760,29.544 319.467 C 30.113 318.782,30.177 84.225,29.610 81.800 C 29.404 80.920,29.371 80.152,29.537 80.094 C 29.702 80.035,29.765 79.360,29.675 78.594 C 29.586 77.827,29.682 77.200,29.890 77.200 C 30.306 77.200,30.365 76.941,30.486 74.600 C 30.532 73.720,30.705 72.903,30.872 72.784 C 31.038 72.666,31.212 71.946,31.258 71.184 C 31.304 70.423,31.512 69.575,31.720 69.300 C 31.928 69.025,31.964 68.800,31.800 68.800 C 31.636 68.800,31.693 68.569,31.927 68.288 C 32.161 68.006,32.436 67.331,32.538 66.788 C 32.944 64.619,33.305 63.600,33.667 63.600 C 33.876 63.600,33.936 63.420,33.800 63.200 C 33.664 62.980,33.754 62.800,34.000 62.800 C 34.246 62.800,34.336 62.620,34.200 62.400 C 34.064 62.180,34.154 62.000,34.400 62.000 C 34.646 62.000,34.736 61.820,34.600 61.600 C 34.464 61.380,34.531 61.200,34.749 61.200 C 35.147 61.200,35.828 59.663,35.679 59.100 C 35.636 58.935,35.780 58.800,36.000 58.800 C 36.220 58.800,36.400 58.464,36.400 58.052 C 36.400 57.395,38.440 54.492,40.497 52.225 C 40.884 51.798,41.200 51.234,41.200 50.971 C 41.200 50.707,41.649 50.198,42.197 49.838 C 42.746 49.479,43.151 49.029,43.097 48.838 C 42.975 48.400,48.669 42.800,49.237 42.800 C 49.784 42.800,50.800 41.778,50.800 41.229 C 50.800 40.993,50.980 40.778,51.200 40.750 C 51.420 40.723,51.766 40.678,51.968 40.650 C 52.170 40.623,52.785 40.210,53.334 39.732 C 53.882 39.255,54.433 38.966,54.556 39.090 C 54.680 39.213,54.894 39.020,55.032 38.660 C 55.171 38.299,55.445 38.104,55.642 38.226 C 55.839 38.348,56.000 38.246,56.000 38.000 C 56.000 37.754,56.156 37.649,56.347 37.767 C 56.537 37.885,57.004 37.638,57.384 37.218 C 57.764 36.798,58.327 36.550,58.634 36.668 C 58.942 36.786,59.304 36.594,59.439 36.242 C 59.575 35.889,59.986 35.600,60.354 35.600 C 60.721 35.600,61.398 35.336,61.858 35.014 C 62.319 34.692,62.809 34.542,62.947 34.681 C 63.086 34.820,63.200 34.713,63.200 34.443 C 63.200 34.173,63.360 34.051,63.555 34.172 C 63.750 34.293,64.122 34.136,64.381 33.823 C 64.640 33.511,65.389 33.270,66.045 33.289 C 66.701 33.308,67.431 33.129,67.667 32.893 C 67.904 32.656,68.346 32.558,68.649 32.674 C 68.952 32.790,69.200 32.674,69.200 32.416 C 69.200 32.151,69.505 32.043,69.900 32.168 C 70.285 32.290,71.107 32.127,71.726 31.805 C 72.367 31.472,73.533 31.286,74.434 31.373 C 75.412 31.467,76.223 31.320,76.555 30.988 C 76.920 30.623,77.946 30.481,79.747 30.547 C 81.206 30.600,82.400 30.544,82.400 30.422 C 82.400 30.300,135.320 30.200,200.000 30.200 C 264.680 30.200,317.600 30.313,317.600 30.452 M279.803 104.395 C 279.662 104.623,279.824 104.689,280.184 104.551 C 280.604 104.390,280.740 104.489,280.597 104.855 C 280.331 105.542,278.523 106.400,277.344 106.400 C 276.851 106.400,276.328 106.592,276.183 106.827 C 276.038 107.062,275.680 107.163,275.389 107.051 C 275.097 106.939,274.643 107.107,274.380 107.424 C 274.117 107.741,273.715 108.000,273.486 108.000 C 273.257 108.000,271.548 109.575,269.688 111.500 C 267.829 113.425,266.541 114.640,266.826 114.200 C 267.112 113.760,262.905 117.810,257.477 123.200 C 252.050 128.590,247.607 133.185,247.604 133.412 C 247.602 133.638,247.223 134.088,246.763 134.412 C 246.303 134.735,244.638 136.330,243.063 137.956 C 233.779 147.541,230.537 150.751,230.020 150.868 C 229.247 151.044,226.400 153.815,226.400 154.392 C 226.400 154.642,226.220 154.736,226.000 154.600 C 225.780 154.464,225.600 154.633,225.600 154.976 C 225.600 155.319,225.465 155.557,225.300 155.505 C 224.909 155.380,221.780 158.509,221.905 158.900 C 221.957 159.065,221.719 159.200,221.376 159.200 C 221.033 159.200,220.864 159.380,221.000 159.600 C 221.136 159.820,220.971 160.000,220.634 160.000 C 220.297 160.000,219.251 160.782,218.311 161.737 C 213.254 166.874,210.400 170.016,210.400 170.448 C 210.400 170.715,210.289 170.823,210.154 170.687 C 210.019 170.552,209.029 171.344,207.954 172.447 C 206.879 173.551,206.000 174.308,206.000 174.131 C 206.000 173.954,205.524 174.478,204.942 175.296 C 203.636 177.132,202.675 177.472,201.315 176.581 C 199.807 175.593,197.612 173.321,197.893 173.040 C 198.025 172.908,197.910 172.800,197.638 172.800 C 196.999 172.800,196.000 171.801,196.000 171.162 C 196.000 170.890,195.894 170.773,195.763 170.903 C 195.476 171.191,189.600 165.379,189.600 164.806 C 189.600 164.583,189.398 164.400,189.152 164.400 C 188.578 164.400,185.221 160.913,185.513 160.620 C 185.634 160.499,185.521 160.400,185.262 160.400 C 184.672 160.400,177.200 152.967,177.200 152.382 C 177.200 152.146,177.065 152.026,176.900 152.116 C 176.504 152.332,166.390 142.144,166.696 141.837 C 166.827 141.707,166.721 141.600,166.462 141.600 C 165.872 141.600,158.400 134.167,158.400 133.582 C 158.400 133.346,158.259 133.240,158.087 133.347 C 157.914 133.453,157.329 132.981,156.787 132.297 C 155.040 130.097,152.100 127.234,151.846 127.487 C 151.711 127.623,151.600 127.473,151.600 127.155 C 151.600 126.837,151.225 126.312,150.767 125.988 C 149.622 125.180,147.552 123.200,147.852 123.200 C 148.126 123.200,145.937 121.061,143.041 118.500 C 141.983 117.565,141.232 116.800,141.371 116.800 C 141.511 116.800,139.917 115.090,137.831 113.000 C 135.744 110.910,133.920 109.200,133.776 109.200 C 133.552 109.200,132.767 108.621,130.534 106.810 C 130.089 106.449,129.055 106.120,127.376 105.806 C 126.949 105.727,126.510 105.636,126.400 105.605 C 124.838 105.163,119.996 105.636,119.281 106.300 C 118.985 106.575,118.347 106.800,117.864 106.800 C 116.695 106.800,113.903 108.719,114.251 109.283 C 114.415 109.549,114.340 109.610,114.061 109.438 C 113.780 109.264,113.446 109.553,113.209 110.176 C 112.995 110.739,112.551 111.200,112.222 111.200 C 111.856 111.200,111.714 111.432,111.855 111.800 C 111.982 112.130,111.876 112.400,111.619 112.400 C 111.363 112.400,111.244 112.548,111.356 112.728 C 111.467 112.909,111.212 113.626,110.789 114.322 C 110.366 115.017,110.125 115.860,110.253 116.193 C 110.381 116.527,110.276 116.800,110.019 116.800 C 109.763 116.800,109.656 116.968,109.783 117.172 C 109.909 117.377,109.838 117.653,109.624 117.785 C 109.208 118.042,109.230 120.398,109.648 120.399 C 109.784 120.400,110.103 121.455,110.357 122.744 C 110.947 125.742,112.225 128.400,113.076 128.400 C 113.438 128.400,113.626 128.507,113.495 128.638 C 113.364 128.769,115.944 131.596,119.229 134.921 C 122.513 138.246,125.200 141.097,125.200 141.256 C 125.200 141.416,125.551 141.657,125.980 141.794 C 126.408 141.930,126.870 142.392,127.006 142.820 C 127.143 143.249,127.402 143.600,127.583 143.600 C 128.002 143.600,141.600 157.214,141.600 157.633 C 141.600 157.805,141.951 158.057,142.380 158.194 C 142.808 158.330,143.270 158.792,143.406 159.220 C 143.543 159.649,143.837 160.000,144.061 160.000 C 144.578 160.000,180.996 196.495,180.884 196.900 C 180.838 197.065,180.980 197.200,181.200 197.200 C 182.402 197.200,181.412 199.227,179.138 201.423 C 177.783 202.730,175.900 204.565,174.952 205.500 C 174.005 206.435,173.043 207.200,172.815 207.200 C 172.587 207.200,172.400 207.481,172.400 207.824 C 172.400 208.167,172.229 208.342,172.020 208.212 C 171.811 208.083,171.424 208.382,171.159 208.876 C 170.496 210.116,160.814 219.824,160.364 219.700 C 160.164 219.645,160.000 219.859,160.000 220.176 C 160.000 220.493,159.792 220.881,159.538 221.038 C 159.233 221.227,159.186 221.146,159.400 220.800 C 159.614 220.454,159.567 220.373,159.262 220.562 C 159.008 220.719,158.800 221.112,158.800 221.436 C 158.800 221.760,158.485 222.139,158.100 222.277 C 157.107 222.635,153.609 226.091,153.848 226.478 C 153.958 226.655,153.799 226.800,153.496 226.800 C 152.844 226.800,151.160 228.626,151.499 228.966 C 151.628 229.095,151.505 229.200,151.226 229.200 C 150.574 229.200,146.160 233.489,136.300 243.703 C 135.035 245.013,134.000 246.246,134.000 246.443 C 134.000 246.639,133.817 246.800,133.593 246.800 C 133.056 246.800,130.400 249.546,130.400 250.101 C 130.400 250.339,130.286 250.420,130.147 250.281 C 130.008 250.142,129.361 250.607,128.710 251.314 C 123.459 257.011,114.585 265.915,114.321 265.751 C 114.141 265.640,113.880 265.876,113.739 266.275 C 113.599 266.674,112.966 267.553,112.332 268.229 C 111.698 268.906,111.107 270.037,111.017 270.744 C 110.928 271.451,110.572 272.879,110.227 273.918 C 109.777 275.273,109.703 276.164,109.964 277.073 C 110.163 277.770,110.223 278.443,110.097 278.570 C 109.970 278.696,110.087 278.800,110.357 278.800 C 110.627 278.800,110.745 278.965,110.621 279.166 C 110.497 279.367,110.584 279.595,110.815 279.672 C 111.046 279.749,111.284 280.259,111.345 280.806 C 111.519 282.381,112.360 283.645,114.734 285.900 C 116.755 287.820,117.307 288.185,117.758 287.900 C 117.845 287.845,118.251 288.104,118.662 288.475 C 119.927 289.620,126.395 290.434,127.426 289.578 C 127.696 289.355,128.070 289.207,128.258 289.251 C 128.446 289.294,129.140 289.107,129.800 288.836 C 130.460 288.565,131.025 288.401,131.055 288.472 C 131.085 288.542,131.504 288.150,131.985 287.600 C 132.467 287.050,132.744 286.870,132.601 287.200 C 132.389 287.689,132.439 287.683,132.870 287.170 C 133.162 286.823,133.895 286.218,134.500 285.824 C 135.105 285.430,135.600 284.872,135.600 284.583 C 135.600 284.295,135.859 284.000,136.177 283.929 C 137.129 283.716,151.622 269.159,151.338 268.700 C 151.194 268.467,151.254 268.386,151.472 268.521 C 151.943 268.812,158.111 262.644,157.730 262.263 C 157.585 262.118,157.681 262.000,157.942 262.000 C 158.204 262.000,167.999 252.415,179.709 240.700 C 197.746 222.656,201.191 219.382,202.251 219.281 C 203.522 219.160,219.335 234.648,259.709 275.559 C 265.158 281.082,269.727 285.600,269.862 285.600 C 270.206 285.600,271.600 287.252,271.600 287.661 C 271.600 287.848,271.857 288.000,272.171 288.000 C 272.486 288.000,272.984 288.241,273.278 288.536 C 273.845 289.102,275.343 289.531,277.512 289.748 C 278.677 289.864,279.952 290.870,279.987 291.700 C 279.994 291.865,280.390 292.000,280.867 292.000 C 281.343 292.000,281.624 291.891,281.491 291.757 C 281.072 291.338,282.804 289.801,283.723 289.776 C 285.014 289.741,287.600 288.797,287.600 288.360 C 287.600 288.153,288.093 287.762,288.695 287.491 C 289.911 286.945,291.450 285.551,291.308 285.124 C 291.258 284.973,291.563 284.739,291.988 284.604 C 292.698 284.378,293.466 283.008,293.279 282.300 C 293.236 282.135,293.399 282.000,293.643 282.000 C 293.886 282.000,293.982 281.730,293.855 281.400 C 293.729 281.070,293.799 280.800,294.013 280.800 C 294.226 280.800,294.379 280.665,294.353 280.500 C 294.327 280.335,294.340 280.020,294.383 279.800 C 294.708 278.119,294.376 272.775,293.873 271.600 C 293.543 270.830,293.267 270.020,293.261 269.800 C 293.254 269.580,292.920 269.040,292.519 268.600 C 292.117 268.160,291.536 267.305,291.227 266.700 C 290.918 266.095,290.425 265.600,290.132 265.600 C 289.840 265.600,289.600 265.330,289.600 265.000 C 289.600 264.670,289.398 264.400,289.152 264.400 C 288.578 264.400,285.221 260.913,285.513 260.620 C 285.634 260.499,285.521 260.400,285.262 260.400 C 284.646 260.400,277.200 252.954,277.200 252.338 C 277.200 252.079,277.093 251.973,276.963 252.104 C 276.656 252.410,266.468 242.296,266.684 241.900 C 266.774 241.735,266.654 241.600,266.418 241.600 C 265.833 241.600,258.400 234.128,258.400 233.538 C 258.400 233.279,258.294 233.173,258.164 233.303 C 257.858 233.609,247.667 223.495,247.883 223.100 C 247.973 222.935,247.844 222.800,247.595 222.800 C 246.992 222.800,246.000 221.781,246.000 221.162 C 246.000 220.890,245.902 220.765,245.782 220.885 C 245.502 221.165,239.600 215.373,239.600 214.818 C 239.600 214.588,239.398 214.400,239.152 214.400 C 238.578 214.400,235.221 210.913,235.513 210.620 C 235.634 210.499,235.521 210.400,235.262 210.400 C 234.646 210.400,227.200 202.954,227.200 202.338 C 227.200 202.079,227.091 201.976,226.958 202.109 C 226.658 202.409,224.800 200.598,224.800 200.006 C 224.800 199.769,224.531 199.472,224.203 199.346 C 222.684 198.763,223.624 197.326,229.300 191.560 C 231.665 189.157,233.600 187.003,233.600 186.772 C 233.600 186.542,233.780 186.464,234.000 186.600 C 234.220 186.736,234.400 186.663,234.400 186.438 C 234.400 185.787,240.419 179.965,240.830 180.218 C 241.033 180.344,241.200 180.231,241.200 179.968 C 241.200 179.704,242.291 178.433,243.625 177.144 C 244.959 175.855,245.967 174.800,245.864 174.800 C 245.762 174.800,246.890 173.630,248.371 172.200 C 249.852 170.770,251.199 169.600,251.363 169.600 C 251.528 169.600,252.397 168.880,253.295 168.000 C 254.193 167.120,254.800 166.400,254.645 166.400 C 254.490 166.400,254.814 165.950,255.364 165.400 C 255.914 164.850,256.498 164.400,256.661 164.400 C 257.104 164.400,263.001 158.249,262.893 157.900 C 262.842 157.735,263.100 157.600,263.467 157.600 C 263.833 157.600,264.022 157.489,263.886 157.352 C 263.601 157.068,264.563 156.000,265.104 156.000 C 265.384 156.000,271.272 150.218,275.120 146.165 C 275.406 145.864,275.912 145.465,276.245 145.279 C 276.578 145.093,276.901 144.594,276.963 144.170 C 277.025 143.747,277.329 143.392,277.638 143.382 C 277.947 143.372,278.151 143.133,278.090 142.852 C 278.030 142.571,278.132 142.434,278.317 142.549 C 278.704 142.788,278.743 142.751,286.100 135.302 C 289.125 132.239,291.600 129.523,291.600 129.266 C 291.600 129.010,291.825 128.845,292.100 128.900 C 292.375 128.955,292.555 128.775,292.500 128.500 C 292.445 128.225,292.572 128.000,292.781 128.000 C 293.210 128.000,294.326 125.821,294.585 124.479 C 294.678 123.994,294.884 123.387,295.043 123.131 C 295.429 122.507,295.482 117.225,295.100 117.462 C 294.935 117.564,294.779 117.412,294.754 117.124 C 294.569 114.996,294.362 114.221,293.820 113.623 C 293.479 113.246,293.200 112.726,293.200 112.469 C 293.200 112.211,293.009 112.000,292.776 112.000 C 292.543 112.000,292.449 111.844,292.567 111.653 C 293.268 110.519,285.851 105.800,284.091 106.260 C 283.562 106.399,283.200 106.312,283.200 106.047 C 283.200 105.801,282.942 105.600,282.627 105.600 C 282.312 105.600,281.940 105.240,281.800 104.800 C 281.536 103.969,280.230 103.705,279.803 104.395 " stroke="none" fill="#343434" fill-rule="evenodd"></path><path id="path1" d="M61.000 1.185 C 56.082 2.555,53.121 3.563,52.620 4.039 C 52.411 4.238,51.961 4.406,51.620 4.413 C 51.279 4.419,49.925 4.959,48.610 5.613 C 47.296 6.266,45.991 6.800,45.710 6.800 C 45.430 6.800,45.200 6.980,45.200 7.200 C 45.200 7.420,44.855 7.600,44.433 7.600 C 44.012 7.600,43.607 7.742,43.533 7.915 C 43.460 8.088,42.384 8.722,41.141 9.324 C 39.899 9.926,38.662 10.684,38.392 11.009 C 38.123 11.334,37.682 11.600,37.413 11.600 C 37.144 11.600,36.598 11.960,36.200 12.400 C 35.802 12.840,35.332 13.200,35.156 13.200 C 33.297 13.200,19.485 26.024,15.600 31.357 C 14.830 32.414,13.655 33.936,12.989 34.739 C 12.323 35.543,11.521 36.740,11.207 37.400 C 10.893 38.060,10.339 38.960,9.975 39.400 C 9.612 39.840,9.064 40.785,8.759 41.500 C 8.454 42.215,8.069 42.800,7.902 42.800 C 7.736 42.800,7.600 43.160,7.600 43.600 C 7.600 44.040,7.420 44.400,7.200 44.400 C 6.980 44.400,6.800 44.760,6.800 45.200 C 6.800 45.640,6.620 46.000,6.400 46.000 C 6.180 46.000,6.000 46.360,6.000 46.800 C 6.000 47.240,5.820 47.600,5.600 47.600 C 5.380 47.600,5.200 47.960,5.200 48.400 C 5.200 48.840,5.020 49.200,4.800 49.200 C 4.580 49.200,4.400 49.472,4.400 49.805 C 4.400 50.138,4.241 50.723,4.047 51.105 C 3.571 52.040,2.982 53.507,2.400 55.200 C 1.918 56.604,1.771 57.006,0.791 59.600 C 0.275 60.964,-0.235 75.857,0.071 80.600 C 0.350 84.923,1.721 80.119,1.662 75.023 C 1.645 73.495,1.776 72.055,1.953 71.823 C 2.464 71.154,2.827 69.936,2.445 70.172 C 1.868 70.529,2.060 68.448,2.650 67.959 C 2.952 67.707,3.200 66.995,3.200 66.375 C 3.200 65.755,3.382 65.135,3.604 64.997 C 3.827 64.860,4.004 64.264,3.999 63.674 C 3.983 61.854,4.118 61.200,4.509 61.200 C 4.716 61.200,4.782 60.930,4.655 60.600 C 4.529 60.270,4.619 60.000,4.855 60.000 C 5.092 60.000,5.178 59.721,5.047 59.379 C 4.916 59.038,4.968 58.857,5.162 58.976 C 5.570 59.229,6.132 57.337,5.806 56.809 C 5.685 56.615,5.773 56.340,6.000 56.200 C 6.227 56.060,6.309 55.777,6.183 55.572 C 6.056 55.368,6.124 55.200,6.333 55.200 C 6.695 55.200,7.401 53.322,7.269 52.709 C 7.234 52.549,7.648 51.627,8.187 50.660 C 8.727 49.693,9.060 48.793,8.927 48.660 C 8.794 48.528,8.981 48.305,9.343 48.167 C 9.704 48.028,10.003 47.619,10.007 47.257 C 10.017 46.294,12.204 42.738,12.566 43.095 C 12.737 43.263,12.838 43.130,12.791 42.800 C 12.633 41.694,12.797 41.151,13.210 41.406 C 13.435 41.545,13.594 41.511,13.563 41.330 C 13.433 40.586,13.644 40.103,14.500 39.185 C 14.995 38.653,15.400 38.087,15.400 37.927 C 15.400 37.766,15.760 37.343,16.200 36.988 C 16.640 36.632,16.730 36.475,16.400 36.639 C 15.955 36.860,15.981 36.731,16.500 36.137 C 16.885 35.697,17.200 35.147,17.200 34.915 C 17.200 34.683,17.578 34.394,18.040 34.274 C 18.502 34.153,18.774 33.881,18.643 33.670 C 18.512 33.458,18.943 32.861,19.599 32.343 C 20.256 31.824,20.794 31.236,20.796 31.036 C 20.798 30.835,21.314 30.205,21.942 29.636 C 22.571 29.066,23.297 28.195,23.557 27.700 C 23.816 27.205,24.292 26.800,24.614 26.800 C 24.936 26.800,25.155 26.575,25.100 26.300 C 25.045 26.025,25.225 25.845,25.500 25.900 C 25.775 25.955,25.955 25.783,25.900 25.518 C 25.845 25.253,25.980 25.027,26.200 25.016 C 26.420 25.004,27.590 24.036,28.800 22.864 C 31.418 20.328,31.779 20.019,33.600 18.765 C 34.370 18.234,35.090 17.710,35.200 17.600 C 36.187 16.613,37.292 15.892,37.039 16.400 C 36.875 16.730,37.024 16.651,37.370 16.224 C 37.717 15.796,38.000 15.563,38.000 15.704 C 38.000 15.846,38.483 15.514,39.074 14.966 C 39.665 14.419,40.385 14.062,40.674 14.173 C 40.963 14.284,41.201 14.156,41.203 13.887 C 41.205 13.341,43.357 12.000,44.232 12.000 C 44.545 12.000,44.800 11.820,44.800 11.600 C 44.800 11.380,45.147 11.200,45.571 11.200 C 45.996 11.200,46.626 10.917,46.971 10.571 C 47.317 10.226,47.603 10.091,47.606 10.271 C 47.609 10.452,47.744 10.393,47.906 10.140 C 48.068 9.887,48.560 9.617,49.000 9.540 C 49.440 9.463,49.903 9.261,50.029 9.091 C 50.156 8.920,50.669 8.702,51.170 8.606 C 51.671 8.509,52.305 8.245,52.578 8.019 C 52.850 7.792,53.192 7.725,53.337 7.870 C 53.482 8.015,53.600 7.913,53.600 7.643 C 53.600 7.373,53.768 7.256,53.972 7.383 C 54.177 7.509,54.460 7.427,54.600 7.200 C 54.740 6.973,55.010 6.883,55.200 7.000 C 55.390 7.117,55.658 7.030,55.796 6.807 C 55.934 6.583,56.472 6.400,56.990 6.400 C 57.509 6.400,57.993 6.222,58.067 6.003 C 58.140 5.785,58.695 5.566,59.300 5.516 C 59.905 5.466,60.400 5.304,60.400 5.156 C 60.400 5.007,60.679 4.778,61.021 4.647 C 61.422 4.493,61.542 4.571,61.359 4.866 C 61.185 5.147,61.254 5.214,61.537 5.039 C 61.790 4.883,62.403 4.665,62.898 4.556 C 64.401 4.224,65.767 3.979,66.400 3.928 C 66.730 3.901,67.098 3.730,67.219 3.547 C 67.498 3.123,70.492 2.727,70.232 3.148 C 70.125 3.322,70.403 3.437,70.851 3.404 C 71.298 3.371,71.809 3.110,71.985 2.824 C 72.219 2.446,73.274 2.335,75.853 2.418 C 77.804 2.481,80.210 2.457,81.200 2.366 C 83.571 2.147,316.466 2.150,318.800 2.369 C 319.790 2.462,322.083 2.483,323.896 2.416 C 326.196 2.331,327.384 2.455,327.829 2.824 C 328.522 3.399,330.085 3.661,329.768 3.148 C 329.508 2.727,332.502 3.123,332.781 3.547 C 332.902 3.730,333.270 3.901,333.600 3.928 C 333.930 3.955,334.740 4.084,335.400 4.215 C 336.060 4.346,336.911 4.453,337.292 4.452 C 337.673 4.452,338.090 4.622,338.220 4.832 C 338.349 5.042,338.623 5.109,338.828 4.983 C 339.032 4.856,339.200 4.916,339.200 5.116 C 339.200 5.315,339.767 5.494,340.461 5.514 C 341.154 5.534,341.872 5.786,342.055 6.075 C 342.238 6.364,342.391 6.460,342.394 6.290 C 342.397 6.119,342.940 6.259,343.600 6.600 C 344.260 6.941,344.800 7.104,344.800 6.961 C 344.800 6.819,345.042 6.903,345.337 7.148 C 345.632 7.393,345.992 7.475,346.137 7.330 C 346.282 7.185,346.400 7.307,346.400 7.600 C 346.400 7.893,346.510 8.023,346.645 7.888 C 346.990 7.543,350.108 8.832,350.639 9.538 C 350.881 9.859,351.271 10.004,351.505 9.859 C 351.740 9.714,351.993 9.778,352.067 10.001 C 352.142 10.225,352.639 10.492,353.172 10.595 C 353.705 10.697,354.287 11.010,354.464 11.291 C 354.642 11.571,354.796 11.620,354.806 11.400 C 354.816 11.180,355.008 11.315,355.232 11.700 C 355.456 12.085,356.047 12.400,356.544 12.400 C 357.042 12.400,357.798 12.715,358.225 13.100 C 358.651 13.485,359.492 14.054,360.093 14.364 C 360.695 14.674,361.505 15.214,361.893 15.564 C 362.282 15.914,363.095 16.455,363.700 16.768 C 364.305 17.080,364.800 17.485,364.800 17.668 C 364.800 17.850,365.076 18.000,365.413 18.000 C 365.749 18.000,366.126 18.263,366.250 18.585 C 366.373 18.906,366.817 19.279,367.237 19.412 C 367.657 19.545,368.000 19.912,368.000 20.227 C 368.000 20.542,368.322 20.800,368.715 20.800 C 369.109 20.800,370.483 21.962,371.769 23.382 C 373.055 24.802,374.308 25.927,374.553 25.882 C 374.799 25.837,374.951 26.038,374.890 26.330 C 374.830 26.621,374.941 26.760,375.137 26.639 C 375.333 26.518,375.815 26.775,376.209 27.209 C 376.602 27.644,376.808 28.000,376.667 28.000 C 376.526 28.000,377.128 28.675,378.004 29.500 C 378.881 30.325,379.599 31.127,379.599 31.282 C 379.600 31.437,380.063 32.067,380.628 32.682 C 381.193 33.297,381.913 34.085,382.228 34.434 C 382.543 34.782,382.800 35.262,382.800 35.500 C 382.800 35.738,382.935 35.993,383.100 36.067 C 383.725 36.344,385.597 38.882,385.405 39.192 C 385.295 39.370,385.474 39.619,385.802 39.746 C 386.131 39.872,386.400 40.334,386.400 40.774 C 386.400 41.213,386.944 42.129,387.609 42.809 C 388.274 43.490,388.714 44.216,388.586 44.423 C 388.458 44.630,388.563 44.800,388.819 44.800 C 389.076 44.800,389.194 45.038,389.083 45.329 C 388.971 45.619,389.229 46.075,389.655 46.342 C 390.082 46.608,390.331 46.988,390.209 47.185 C 390.087 47.383,390.162 47.653,390.376 47.785 C 390.590 47.917,390.673 48.267,390.560 48.561 C 390.447 48.856,390.653 49.212,391.019 49.352 C 391.396 49.497,391.586 49.859,391.458 50.192 C 391.335 50.514,391.509 51.052,391.846 51.388 C 392.182 51.725,392.341 52.000,392.200 52.000 C 392.059 52.000,392.227 52.285,392.575 52.632 C 392.923 52.980,393.105 53.430,392.980 53.632 C 392.855 53.835,392.943 54.000,393.176 54.000 C 393.409 54.000,393.600 54.381,393.600 54.846 C 393.600 55.895,394.890 59.751,395.302 59.934 C 395.469 60.008,395.507 60.228,395.386 60.422 C 395.266 60.617,395.437 61.299,395.768 61.938 C 396.098 62.576,396.261 63.206,396.130 63.337 C 395.999 63.468,396.196 64.039,396.568 64.607 C 396.940 65.174,397.206 65.945,397.160 66.319 C 397.115 66.694,397.187 67.270,397.321 67.600 C 397.455 67.930,397.648 69.040,397.750 70.066 C 397.852 71.093,398.139 72.312,398.386 72.775 C 398.634 73.238,398.728 73.792,398.596 74.007 C 398.319 74.455,398.295 77.808,398.561 79.000 C 398.659 79.440,398.753 80.081,398.769 80.424 C 398.786 80.766,399.071 81.396,399.402 81.824 C 399.943 82.520,399.994 81.506,399.902 72.000 L 399.800 61.400 398.479 57.600 C 396.892 53.038,396.752 52.683,395.657 50.462 C 395.186 49.506,394.800 48.471,394.800 48.162 C 394.800 47.853,394.620 47.600,394.400 47.600 C 394.180 47.600,394.000 47.240,394.000 46.800 C 394.000 46.360,393.820 46.000,393.600 46.000 C 393.380 46.000,393.200 45.640,393.200 45.200 C 393.200 44.760,393.020 44.400,392.800 44.400 C 392.580 44.400,392.400 44.040,392.400 43.600 C 392.400 43.160,392.264 42.800,392.098 42.800 C 391.931 42.800,391.546 42.215,391.241 41.500 C 390.936 40.785,390.388 39.840,390.025 39.400 C 389.661 38.960,389.107 38.060,388.793 37.400 C 388.479 36.740,387.677 35.539,387.011 34.732 C 386.345 33.924,384.990 32.183,384.000 30.863 C 382.030 28.235,373.642 19.765,370.840 17.575 C 369.873 16.819,368.798 15.885,368.452 15.500 C 368.105 15.115,367.620 14.800,367.373 14.800 C 367.126 14.800,366.598 14.440,366.200 14.000 C 365.802 13.560,365.262 13.200,365.000 13.200 C 364.738 13.200,364.198 12.840,363.800 12.400 C 363.402 11.960,362.856 11.600,362.587 11.600 C 362.318 11.600,361.877 11.334,361.608 11.009 C 361.338 10.684,360.101 9.926,358.859 9.324 C 357.616 8.722,356.540 8.088,356.467 7.915 C 356.393 7.742,356.121 7.600,355.862 7.600 C 355.603 7.600,353.953 6.885,352.196 6.010 C 350.438 5.136,348.721 4.416,348.380 4.410 C 348.039 4.405,347.589 4.241,347.380 4.047 C 346.861 3.564,342.988 2.271,338.346 1.030 L 334.492 0.000 199.746 0.036 L 65.000 0.072 61.000 1.185 M82.400 30.422 C 82.400 30.544,81.206 30.600,79.747 30.547 C 77.946 30.481,76.920 30.623,76.555 30.988 C 76.223 31.320,75.412 31.467,74.434 31.373 C 73.533 31.286,72.367 31.472,71.726 31.805 C 71.107 32.127,70.285 32.290,69.900 32.168 C 69.505 32.043,69.200 32.151,69.200 32.416 C 69.200 32.674,68.952 32.790,68.649 32.674 C 68.346 32.558,67.904 32.656,67.667 32.893 C 67.431 33.129,66.701 33.308,66.045 33.289 C 65.389 33.270,64.640 33.511,64.381 33.823 C 64.122 34.136,63.750 34.293,63.555 34.172 C 63.360 34.051,63.200 34.173,63.200 34.443 C 63.200 34.713,63.086 34.820,62.947 34.681 C 62.809 34.542,62.319 34.692,61.858 35.014 C 61.398 35.336,60.721 35.600,60.354 35.600 C 59.986 35.600,59.575 35.889,59.439 36.242 C 59.304 36.594,58.942 36.786,58.634 36.668 C 58.327 36.550,57.764 36.798,57.384 37.218 C 57.004 37.638,56.537 37.885,56.347 37.767 C 56.156 37.649,56.000 37.754,56.000 38.000 C 56.000 38.246,55.839 38.348,55.642 38.226 C 55.445 38.104,55.171 38.299,55.032 38.660 C 54.894 39.020,54.680 39.213,54.556 39.090 C 54.433 38.966,53.882 39.255,53.334 39.732 C 52.785 40.210,52.170 40.623,51.968 40.650 C 51.766 40.678,51.420 40.723,51.200 40.750 C 50.980 40.778,50.800 40.993,50.800 41.229 C 50.800 41.778,49.784 42.800,49.237 42.800 C 48.669 42.800,42.975 48.400,43.097 48.838 C 43.151 49.029,42.746 49.479,42.197 49.838 C 41.649 50.198,41.200 50.707,41.200 50.971 C 41.200 51.234,40.884 51.798,40.497 52.225 C 38.440 54.492,36.400 57.395,36.400 58.052 C 36.400 58.464,36.220 58.800,36.000 58.800 C 35.780 58.800,35.636 58.935,35.679 59.100 C 35.828 59.663,35.147 61.200,34.749 61.200 C 34.531 61.200,34.464 61.380,34.600 61.600 C 34.736 61.820,34.646 62.000,34.400 62.000 C 34.154 62.000,34.064 62.180,34.200 62.400 C 34.336 62.620,34.246 62.800,34.000 62.800 C 33.754 62.800,33.664 62.980,33.800 63.200 C 33.936 63.420,33.876 63.600,33.667 63.600 C 33.305 63.600,32.944 64.619,32.538 66.788 C 32.436 67.331,32.161 68.006,31.927 68.288 C 31.693 68.569,31.636 68.800,31.800 68.800 C 31.964 68.800,31.928 69.025,31.720 69.300 C 31.512 69.575,31.304 70.423,31.258 71.184 C 31.212 71.946,31.038 72.666,30.872 72.784 C 30.705 72.903,30.532 73.720,30.486 74.600 C 30.365 76.941,30.306 77.200,29.890 77.200 C 29.682 77.200,29.586 77.827,29.675 78.594 C 29.765 79.360,29.702 80.035,29.537 80.094 C 29.371 80.152,29.404 80.920,29.610 81.800 C 30.177 84.225,30.113 318.782,29.544 319.467 C 29.301 319.760,29.268 320.000,29.471 320.000 C 29.673 320.000,29.766 320.630,29.676 321.400 C 29.586 322.170,29.682 322.800,29.890 322.800 C 30.097 322.800,30.287 323.025,30.312 323.300 C 30.379 324.043,30.647 325.643,30.932 327.000 C 31.070 327.660,31.263 328.679,31.359 329.265 C 31.455 329.851,31.711 330.661,31.927 331.065 C 32.143 331.469,32.433 332.512,32.571 333.383 C 32.709 334.254,32.970 335.064,33.151 335.183 C 33.740 335.571,34.443 337.206,34.195 337.608 C 34.062 337.824,34.116 338.000,34.316 338.000 C 34.718 338.000,36.099 340.834,35.916 341.283 C 35.852 341.438,36.125 341.803,36.522 342.094 C 36.920 342.384,37.284 342.891,37.332 343.220 C 37.418 343.804,39.103 346.227,40.500 347.775 C 40.885 348.202,41.200 348.727,41.200 348.942 C 41.200 349.157,41.474 349.618,41.809 349.966 C 42.144 350.315,43.403 351.680,44.606 353.000 C 45.810 354.320,46.795 355.258,46.797 355.084 C 46.799 354.911,47.051 355.001,47.358 355.284 C 47.665 355.568,47.834 355.935,47.734 356.100 C 47.635 356.265,47.821 356.400,48.149 356.400 C 48.477 356.400,49.788 357.394,51.062 358.608 C 52.337 359.823,53.594 360.734,53.856 360.634 C 54.119 360.533,54.433 360.709,54.554 361.025 C 54.676 361.341,55.051 361.600,55.387 361.600 C 55.724 361.600,56.000 361.791,56.000 362.024 C 56.000 362.257,56.180 362.336,56.400 362.200 C 56.620 362.064,56.800 362.143,56.800 362.376 C 56.800 362.609,57.070 362.800,57.400 362.800 C 57.730 362.800,58.000 362.991,58.000 363.224 C 58.000 363.457,58.165 363.545,58.368 363.420 C 58.570 363.295,59.014 363.471,59.353 363.811 C 59.693 364.150,60.023 364.396,60.086 364.355 C 60.149 364.315,60.965 364.672,61.900 365.149 C 62.835 365.626,63.600 365.901,63.600 365.759 C 63.600 365.618,63.825 365.681,64.100 365.899 C 64.616 366.308,67.492 367.370,68.200 367.413 C 68.420 367.426,68.960 367.623,69.400 367.850 C 69.840 368.077,70.695 368.214,71.300 368.155 C 71.905 368.096,72.400 368.209,72.400 368.406 C 72.400 368.602,73.390 368.698,74.600 368.619 C 75.810 368.539,76.800 368.625,76.800 368.810 C 76.800 369.166,78.384 369.816,78.910 369.676 C 79.555 369.504,320.886 369.606,321.164 369.778 C 321.325 369.877,321.984 369.641,322.628 369.254 C 323.395 368.793,324.457 368.581,325.700 368.641 C 326.745 368.692,327.600 368.598,327.600 368.433 C 327.600 368.268,328.246 368.133,329.035 368.133 C 329.825 368.133,330.614 367.900,330.790 367.615 C 330.967 367.331,331.305 367.217,331.542 367.364 C 331.779 367.510,332.654 367.288,333.486 366.871 C 334.319 366.453,335.225 366.191,335.500 366.289 C 335.775 366.387,336.000 366.272,336.000 366.033 C 336.000 365.795,336.315 365.600,336.700 365.599 C 337.085 365.598,338.420 364.983,339.666 364.232 C 340.912 363.480,342.037 362.971,342.166 363.099 C 342.295 363.228,342.400 363.093,342.400 362.800 C 342.400 362.507,342.511 362.378,342.648 362.514 C 342.784 362.650,343.167 362.490,343.499 362.158 C 343.831 361.826,344.350 361.649,344.652 361.764 C 344.963 361.884,345.200 361.721,345.200 361.387 C 345.200 361.064,345.470 360.800,345.800 360.800 C 346.130 360.800,346.400 360.609,346.400 360.376 C 346.400 360.143,346.551 360.046,346.736 360.160 C 346.920 360.274,348.119 359.385,349.399 358.184 C 350.680 356.983,351.979 356.000,352.287 356.000 C 352.595 356.000,352.736 355.820,352.600 355.600 C 352.464 355.380,352.582 355.200,352.861 355.200 C 353.506 355.200,356.800 351.992,356.800 351.364 C 356.800 351.106,357.433 350.412,358.207 349.821 C 358.982 349.231,359.511 348.580,359.384 348.374 C 359.257 348.168,359.343 348.000,359.576 348.000 C 359.809 348.000,360.000 347.749,360.000 347.443 C 360.000 347.136,360.270 346.782,360.600 346.655 C 360.930 346.529,361.200 346.149,361.200 345.813 C 361.200 345.476,361.399 345.200,361.643 345.200 C 361.886 345.200,361.978 344.921,361.847 344.579 C 361.711 344.223,361.778 344.063,362.005 344.203 C 362.222 344.337,362.400 344.161,362.400 343.811 C 362.400 343.461,362.669 343.072,362.998 342.946 C 363.326 342.819,363.496 342.555,363.374 342.358 C 363.252 342.161,363.354 342.000,363.600 342.000 C 363.846 342.000,363.936 341.820,363.800 341.600 C 363.664 341.380,363.754 341.200,364.000 341.200 C 364.246 341.200,364.345 341.035,364.220 340.832 C 364.095 340.630,364.219 340.225,364.496 339.932 C 364.773 339.640,365.251 338.687,365.557 337.815 C 365.863 336.943,366.358 335.985,366.657 335.686 C 366.956 335.387,367.200 334.716,367.200 334.195 C 367.200 333.674,367.383 333.134,367.607 332.996 C 367.830 332.858,367.917 332.590,367.800 332.400 C 367.683 332.210,367.773 331.940,368.000 331.800 C 368.227 331.660,368.305 331.369,368.172 331.155 C 368.040 330.940,368.149 330.503,368.415 330.182 C 368.680 329.862,368.780 329.600,368.635 329.600 C 368.490 329.600,368.565 329.240,368.800 328.800 C 369.125 328.193,369.104 327.997,368.714 327.988 C 368.377 327.980,368.418 327.848,368.835 327.605 C 369.254 327.359,369.494 326.586,369.541 325.324 C 369.581 324.274,369.867 323.162,370.176 322.853 C 370.576 322.452,370.635 322.018,370.379 321.345 C 370.181 320.825,370.162 320.400,370.336 320.400 C 370.511 320.400,370.512 319.275,370.340 317.900 C 369.824 313.776,369.939 80.755,370.458 80.130 C 370.777 79.746,370.777 79.600,370.459 79.600 C 370.163 79.600,370.137 79.293,370.379 78.655 C 370.643 77.962,370.571 77.543,370.112 77.084 C 369.725 76.697,369.486 75.754,369.486 74.617 C 369.486 73.605,369.331 72.681,369.143 72.565 C 368.954 72.448,368.800 71.823,368.800 71.176 C 368.800 70.529,368.654 70.000,368.476 70.000 C 368.205 70.000,367.380 67.419,367.042 65.514 C 366.835 64.345,366.261 63.003,365.747 62.490 C 365.446 62.189,365.200 61.596,365.200 61.171 C 365.200 60.747,365.041 60.400,364.847 60.400 C 364.503 60.400,363.870 58.904,363.957 58.300 C 363.981 58.135,363.820 58.000,363.600 58.000 C 363.380 58.000,363.240 57.865,363.289 57.700 C 363.393 57.347,362.003 55.132,361.409 54.706 C 361.184 54.544,361.163 54.409,361.361 54.406 C 361.560 54.403,361.065 53.761,360.261 52.981 C 359.458 52.200,358.800 51.364,358.800 51.123 C 358.800 50.882,358.436 50.305,357.991 49.842 C 357.545 49.379,356.147 47.920,354.883 46.600 C 353.619 45.280,352.109 43.953,351.526 43.650 C 350.944 43.348,350.387 42.792,350.288 42.416 C 350.056 41.527,346.475 39.107,345.909 39.456 C 345.667 39.606,345.591 39.539,345.736 39.304 C 345.953 38.953,345.513 38.589,344.400 38.199 C 342.912 37.677,340.400 36.269,340.400 35.958 C 340.400 35.735,340.220 35.664,340.000 35.800 C 339.780 35.936,339.600 35.846,339.600 35.600 C 339.600 35.354,339.420 35.264,339.200 35.400 C 338.980 35.536,338.800 35.446,338.800 35.200 C 338.800 34.954,338.632 34.856,338.428 34.983 C 338.223 35.109,337.940 35.027,337.800 34.800 C 337.660 34.573,337.377 34.491,337.172 34.617 C 336.968 34.744,336.800 34.646,336.800 34.400 C 336.800 34.154,336.632 34.056,336.428 34.183 C 336.223 34.309,335.940 34.227,335.800 34.000 C 335.660 33.773,335.390 33.683,335.200 33.800 C 335.010 33.917,334.740 33.827,334.600 33.600 C 334.460 33.373,334.198 33.278,334.018 33.389 C 333.838 33.500,333.477 33.334,333.216 33.019 C 332.955 32.705,332.482 32.547,332.166 32.669 C 331.849 32.790,331.330 32.674,331.012 32.410 C 330.695 32.147,330.249 32.046,330.022 32.186 C 329.795 32.327,328.970 32.139,328.190 31.769 C 327.410 31.398,326.669 31.197,326.545 31.322 C 326.420 31.447,325.876 31.381,325.336 31.176 C 324.692 30.931,324.439 30.940,324.601 31.201 C 324.979 31.813,324.132 31.674,323.474 31.017 C 323.049 30.592,322.173 30.470,320.245 30.569 C 318.790 30.643,317.600 30.591,317.600 30.452 C 317.600 30.313,264.680 30.200,200.000 30.200 C 135.320 30.200,82.400 30.300,82.400 30.422 M326.076 35.090 C 331.330 36.093,340.408 39.728,342.575 41.696 C 343.002 42.083,343.559 42.400,343.813 42.400 C 344.068 42.400,344.602 42.760,345.000 43.200 C 345.398 43.640,345.884 44.000,346.079 44.000 C 346.275 44.000,347.163 44.675,348.053 45.500 C 348.943 46.325,349.992 47.121,350.384 47.268 C 350.776 47.415,352.241 48.945,353.640 50.668 C 355.039 52.391,356.323 53.860,356.492 53.933 C 356.661 54.007,356.800 54.294,356.800 54.571 C 356.800 54.849,357.160 55.402,357.600 55.800 C 358.040 56.198,358.400 56.744,358.400 57.013 C 358.400 57.282,358.665 57.722,358.989 57.991 C 360.330 59.104,363.941 67.348,365.212 72.200 C 366.703 77.891,366.770 83.409,366.766 199.600 C 366.761 316.146,366.687 322.212,365.216 327.800 C 363.935 332.664,360.326 340.899,358.989 342.009 C 358.665 342.278,358.400 342.718,358.400 342.987 C 358.400 343.256,358.040 343.802,357.600 344.200 C 357.160 344.598,356.800 345.084,356.800 345.279 C 356.800 346.219,346.993 356.000,346.051 356.000 C 345.871 356.000,345.398 356.360,345.000 356.800 C 344.602 357.240,344.068 357.600,343.813 357.600 C 343.559 357.600,343.002 357.917,342.575 358.304 C 339.901 360.732,332.948 363.306,324.000 365.181 C 322.360 365.525,290.461 365.611,198.600 365.521 L 75.400 365.400 71.400 364.297 C 65.592 362.695,59.280 359.988,57.425 358.304 C 56.998 357.917,56.441 357.600,56.187 357.600 C 55.932 357.600,55.398 357.240,55.000 356.800 C 54.602 356.360,54.113 356.000,53.915 356.000 C 52.978 356.000,43.200 346.217,43.200 345.279 C 43.200 345.084,42.840 344.598,42.400 344.200 C 41.960 343.802,41.600 343.256,41.600 342.987 C 41.600 342.718,41.335 342.278,41.011 342.009 C 39.670 340.896,36.059 332.652,34.788 327.800 C 33.297 322.110,33.230 316.584,33.230 200.000 C 33.230 83.416,33.297 77.890,34.788 72.200 C 36.059 67.348,39.670 59.104,41.011 57.991 C 41.335 57.722,41.600 57.282,41.600 57.013 C 41.600 56.744,41.960 56.198,42.400 55.800 C 42.840 55.402,43.200 54.849,43.200 54.571 C 43.200 54.294,43.339 54.007,43.508 53.933 C 43.677 53.860,44.961 52.391,46.360 50.668 C 47.759 48.945,49.224 47.415,49.616 47.268 C 50.008 47.121,51.057 46.325,51.947 45.500 C 52.837 44.675,53.725 44.000,53.921 44.000 C 54.116 44.000,54.602 43.640,55.000 43.200 C 55.398 42.760,55.944 42.400,56.213 42.400 C 56.482 42.400,56.918 42.140,57.181 41.823 C 58.603 40.110,68.443 36.193,74.200 35.048 C 77.837 34.325,322.284 34.365,326.076 35.090 M122.000 101.475 C 119.922 101.819,115.564 103.293,115.022 103.835 C 114.711 104.146,114.272 104.400,114.046 104.400 C 112.698 104.400,107.600 110.776,107.600 112.461 C 107.600 112.868,107.449 113.200,107.264 113.200 C 105.914 113.200,105.638 122.978,106.932 124.952 C 107.299 125.513,107.600 126.261,107.600 126.614 C 107.600 128.246,112.256 133.154,143.553 164.514 L 177.000 198.028 143.154 231.714 C 124.539 250.241,109.080 265.940,108.800 266.600 C 108.521 267.260,108.113 268.250,107.893 268.800 C 107.673 269.350,107.293 270.231,107.049 270.757 C 106.446 272.054,106.506 279.466,107.124 280.084 C 107.386 280.346,107.600 280.886,107.600 281.285 C 107.600 281.684,107.759 282.323,107.953 282.705 C 108.148 283.087,108.553 283.924,108.853 284.565 C 110.505 288.084,116.357 292.199,121.183 293.234 C 123.442 293.718,129.028 293.401,129.421 292.766 C 129.545 292.565,129.980 292.400,130.386 292.400 C 133.090 292.400,134.861 290.747,174.909 250.824 C 189.818 235.961,202.111 223.718,202.225 223.617 C 202.339 223.517,217.410 238.389,235.716 256.666 C 266.213 287.115,270.599 291.286,273.600 292.693 C 281.389 296.346,293.374 291.989,296.568 284.343 C 296.968 283.384,297.444 282.240,297.626 281.800 C 298.936 278.627,298.876 271.388,297.532 270.558 C 297.350 270.445,297.200 270.009,297.200 269.589 C 297.200 268.432,295.740 266.072,293.977 264.378 C 293.109 263.544,292.400 262.714,292.400 262.532 C 292.400 262.351,277.955 247.747,260.300 230.081 L 228.200 197.960 262.022 164.280 C 297.954 128.498,296.805 129.757,298.448 124.400 C 302.195 112.185,289.939 99.472,277.277 102.440 C 271.771 103.731,273.014 102.617,235.600 139.791 C 222.070 153.235,209.105 166.067,206.788 168.306 L 202.576 172.379 180.789 150.589 C 168.807 138.605,158.852 128.800,158.667 128.800 C 158.483 128.800,155.692 126.058,152.466 122.707 C 149.240 119.357,146.012 116.072,145.293 115.407 C 144.574 114.743,141.626 111.899,138.741 109.086 C 133.194 103.678,131.930 102.865,127.459 101.828 C 124.779 101.207,123.944 101.153,122.000 101.475 M281.800 104.800 C 281.940 105.240,282.312 105.600,282.627 105.600 C 282.942 105.600,283.200 105.801,283.200 106.047 C 283.200 106.312,283.562 106.399,284.091 106.260 C 285.851 105.800,293.268 110.519,292.567 111.653 C 292.449 111.844,292.543 112.000,292.776 112.000 C 293.009 112.000,293.200 112.211,293.200 112.469 C 293.200 112.726,293.479 113.246,293.820 113.623 C 294.362 114.221,294.569 114.996,294.754 117.124 C 294.779 117.412,294.935 117.564,295.100 117.462 C 295.482 117.225,295.429 122.507,295.043 123.131 C 294.884 123.387,294.678 123.994,294.585 124.479 C 294.326 125.821,293.210 128.000,292.781 128.000 C 292.572 128.000,292.445 128.225,292.500 128.500 C 292.555 128.775,292.375 128.955,292.100 128.900 C 291.825 128.845,291.600 129.010,291.600 129.266 C 291.600 129.523,289.125 132.239,286.100 135.302 C 278.743 142.751,278.704 142.788,278.317 142.549 C 278.132 142.434,278.030 142.571,278.090 142.852 C 278.151 143.133,277.947 143.372,277.638 143.382 C 277.329 143.392,277.025 143.747,276.963 144.170 C 276.901 144.594,276.578 145.093,276.245 145.279 C 275.912 145.465,275.406 145.864,275.120 146.165 C 271.272 150.218,265.384 156.000,265.104 156.000 C 264.563 156.000,263.601 157.068,263.886 157.352 C 264.022 157.489,263.833 157.600,263.467 157.600 C 263.100 157.600,262.842 157.735,262.893 157.900 C 263.001 158.249,257.104 164.400,256.661 164.400 C 256.498 164.400,255.914 164.850,255.364 165.400 C 254.814 165.950,254.490 166.400,254.645 166.400 C 254.800 166.400,254.193 167.120,253.295 168.000 C 252.397 168.880,251.528 169.600,251.363 169.600 C 251.199 169.600,249.852 170.770,248.371 172.200 C 246.890 173.630,245.762 174.800,245.864 174.800 C 245.967 174.800,244.959 175.855,243.625 177.144 C 242.291 178.433,241.200 179.704,241.200 179.968 C 241.200 180.231,241.033 180.344,240.830 180.218 C 240.419 179.965,234.400 185.787,234.400 186.438 C 234.400 186.663,234.220 186.736,234.000 186.600 C 233.780 186.464,233.600 186.542,233.600 186.772 C 233.600 187.003,231.665 189.157,229.300 191.560 C 223.624 197.326,222.684 198.763,224.203 199.346 C 224.531 199.472,224.800 199.769,224.800 200.006 C 224.800 200.598,226.658 202.409,226.958 202.109 C 227.091 201.976,227.200 202.079,227.200 202.338 C 227.200 202.954,234.646 210.400,235.262 210.400 C 235.521 210.400,235.634 210.499,235.513 210.620 C 235.221 210.913,238.578 214.400,239.152 214.400 C 239.398 214.400,239.600 214.588,239.600 214.818 C 239.600 215.373,245.502 221.165,245.782 220.885 C 245.902 220.765,246.000 220.890,246.000 221.162 C 246.000 221.781,246.992 222.800,247.595 222.800 C 247.844 222.800,247.973 222.935,247.883 223.100 C 247.667 223.495,257.858 233.609,258.164 233.303 C 258.294 233.173,258.400 233.279,258.400 233.538 C 258.400 234.128,265.833 241.600,266.418 241.600 C 266.654 241.600,266.774 241.735,266.684 241.900 C 266.468 242.296,276.656 252.410,276.963 252.104 C 277.093 251.973,277.200 252.079,277.200 252.338 C 277.200 252.954,284.646 260.400,285.262 260.400 C 285.521 260.400,285.634 260.499,285.513 260.620 C 285.221 260.913,288.578 264.400,289.152 264.400 C 289.398 264.400,289.600 264.670,289.600 265.000 C 289.600 265.330,289.840 265.600,290.132 265.600 C 290.425 265.600,290.918 266.095,291.227 266.700 C 291.536 267.305,292.117 268.160,292.519 268.600 C 292.920 269.040,293.254 269.580,293.261 269.800 C 293.267 270.020,293.543 270.830,293.873 271.600 C 294.376 272.775,294.708 278.119,294.383 279.800 C 294.340 280.020,294.327 280.335,294.353 280.500 C 294.379 280.665,294.226 280.800,294.013 280.800 C 293.799 280.800,293.729 281.070,293.855 281.400 C 293.982 281.730,293.886 282.000,293.643 282.000 C 293.399 282.000,293.236 282.135,293.279 282.300 C 293.466 283.008,292.698 284.378,291.988 284.604 C 291.563 284.739,291.258 284.973,291.308 285.124 C 291.450 285.551,289.911 286.945,288.695 287.491 C 288.093 287.762,287.600 288.153,287.600 288.360 C 287.600 288.797,285.014 289.741,283.723 289.776 C 282.804 289.801,281.072 291.338,281.491 291.757 C 281.624 291.891,281.343 292.000,280.867 292.000 C 280.390 292.000,279.994 291.865,279.987 291.700 C 279.952 290.870,278.677 289.864,277.512 289.748 C 275.343 289.531,273.845 289.102,273.278 288.536 C 272.984 288.241,272.486 288.000,272.171 288.000 C 271.857 288.000,271.600 287.848,271.600 287.661 C 271.600 287.252,270.206 285.600,269.862 285.600 C 269.727 285.600,265.158 281.082,259.709 275.559 C 219.335 234.648,203.522 219.160,202.251 219.281 C 201.191 219.382,197.746 222.656,179.709 240.700 C 167.999 252.415,158.204 262.000,157.942 262.000 C 157.681 262.000,157.585 262.118,157.730 262.263 C 158.111 262.644,151.943 268.812,151.472 268.521 C 151.254 268.386,151.194 268.467,151.338 268.700 C 151.622 269.159,137.129 283.716,136.177 283.929 C 135.859 284.000,135.600 284.295,135.600 284.583 C 135.600 284.872,135.105 285.430,134.500 285.824 C 133.895 286.218,133.162 286.823,132.870 287.170 C 132.439 287.683,132.389 287.689,132.601 287.200 C 132.744 286.870,132.467 287.050,131.985 287.600 C 131.504 288.150,131.085 288.542,131.055 288.472 C 131.025 288.401,130.460 288.565,129.800 288.836 C 129.140 289.107,128.446 289.294,128.258 289.251 C 128.070 289.207,127.696 289.355,127.426 289.578 C 126.395 290.434,119.927 289.620,118.662 288.475 C 118.251 288.104,117.845 287.845,117.758 287.900 C 116.600 288.633,111.599 283.101,111.345 280.806 C 111.284 280.259,111.046 279.749,110.815 279.672 C 110.584 279.595,110.497 279.367,110.621 279.166 C 110.745 278.965,110.627 278.800,110.357 278.800 C 110.087 278.800,109.970 278.696,110.097 278.570 C 110.223 278.443,110.163 277.770,109.964 277.073 C 109.703 276.164,109.777 275.273,110.227 273.918 C 110.572 272.879,110.928 271.451,111.017 270.744 C 111.107 270.037,111.698 268.906,112.332 268.229 C 112.966 267.553,113.599 266.674,113.739 266.275 C 113.880 265.876,114.141 265.640,114.321 265.751 C 114.585 265.915,123.459 257.011,128.710 251.314 C 129.361 250.607,130.008 250.142,130.147 250.281 C 130.286 250.420,130.400 250.339,130.400 250.101 C 130.400 249.546,133.056 246.800,133.593 246.800 C 133.817 246.800,134.000 246.639,134.000 246.443 C 134.000 245.593,150.377 229.200,151.226 229.200 C 151.505 229.200,151.628 229.095,151.499 228.966 C 151.160 228.626,152.844 226.800,153.496 226.800 C 153.799 226.800,153.958 226.655,153.848 226.478 C 153.609 226.091,157.107 222.635,158.100 222.277 C 158.485 222.139,158.800 221.760,158.800 221.436 C 158.800 221.112,159.008 220.719,159.262 220.562 C 159.567 220.373,159.614 220.454,159.400 220.800 C 159.186 221.146,159.233 221.227,159.538 221.038 C 159.792 220.881,160.000 220.493,160.000 220.176 C 160.000 219.859,160.164 219.645,160.364 219.700 C 160.814 219.824,170.496 210.116,171.159 208.876 C 171.424 208.382,171.811 208.083,172.020 208.212 C 172.229 208.342,172.400 208.167,172.400 207.824 C 172.400 207.481,172.587 207.200,172.815 207.200 C 173.043 207.200,174.005 206.435,174.952 205.500 C 175.900 204.565,177.783 202.730,179.138 201.423 C 181.412 199.227,182.402 197.200,181.200 197.200 C 180.980 197.200,180.838 197.065,180.884 196.900 C 180.996 196.495,144.578 160.000,144.061 160.000 C 143.837 160.000,143.543 159.649,143.406 159.220 C 143.270 158.792,142.808 158.330,142.380 158.194 C 141.951 158.057,141.600 157.805,141.600 157.633 C 141.600 157.214,128.002 143.600,127.583 143.600 C 127.402 143.600,127.143 143.249,127.006 142.820 C 126.870 142.392,126.408 141.930,125.980 141.794 C 125.551 141.657,125.200 141.416,125.200 141.256 C 125.200 141.097,122.513 138.246,119.229 134.921 C 115.944 131.596,113.364 128.769,113.495 128.638 C 113.626 128.507,113.438 128.400,113.076 128.400 C 112.225 128.400,110.947 125.742,110.357 122.744 C 110.103 121.455,109.784 120.400,109.648 120.399 C 109.230 120.398,109.208 118.042,109.624 117.785 C 109.838 117.653,109.909 117.377,109.783 117.172 C 109.656 116.968,109.763 116.800,110.019 116.800 C 110.276 116.800,110.381 116.527,110.253 116.193 C 110.125 115.860,110.366 115.017,110.789 114.322 C 111.212 113.626,111.467 112.909,111.356 112.728 C 111.244 112.548,111.363 112.400,111.619 112.400 C 111.876 112.400,111.982 112.130,111.855 111.800 C 111.714 111.432,111.856 111.200,112.222 111.200 C 112.551 111.200,112.995 110.739,113.209 110.176 C 113.446 109.553,113.780 109.264,114.061 109.438 C 114.340 109.610,114.415 109.549,114.251 109.283 C 113.903 108.719,116.695 106.800,117.864 106.800 C 118.347 106.800,118.985 106.575,119.281 106.300 C 119.996 105.636,124.838 105.163,126.400 105.605 C 126.510 105.636,126.949 105.727,127.376 105.806 C 129.055 106.120,130.089 106.449,130.534 106.810 C 132.767 108.621,133.552 109.200,133.776 109.200 C 133.920 109.200,135.744 110.910,137.831 113.000 C 139.917 115.090,141.511 116.800,141.371 116.800 C 141.232 116.800,141.983 117.565,143.041 118.500 C 145.937 121.061,148.126 123.200,147.852 123.200 C 147.552 123.200,149.622 125.180,150.767 125.988 C 151.225 126.312,151.600 126.837,151.600 127.155 C 151.600 127.473,151.711 127.623,151.846 127.487 C 152.100 127.234,155.040 130.097,156.787 132.297 C 157.329 132.981,157.914 133.453,158.087 133.347 C 158.259 133.240,158.400 133.346,158.400 133.582 C 158.400 134.167,165.872 141.600,166.462 141.600 C 166.721 141.600,166.827 141.707,166.696 141.837 C 166.390 142.144,176.504 152.332,176.900 152.116 C 177.065 152.026,177.200 152.146,177.200 152.382 C 177.200 152.967,184.672 160.400,185.262 160.400 C 185.521 160.400,185.634 160.499,185.513 160.620 C 185.221 160.913,188.578 164.400,189.152 164.400 C 189.398 164.400,189.600 164.583,189.600 164.806 C 189.600 165.379,195.476 171.191,195.763 170.903 C 195.894 170.773,196.000 170.890,196.000 171.162 C 196.000 171.801,196.999 172.800,197.638 172.800 C 197.910 172.800,198.025 172.908,197.893 173.040 C 197.612 173.321,199.807 175.593,201.315 176.581 C 202.675 177.472,203.636 177.132,204.942 175.296 C 205.524 174.478,206.000 173.954,206.000 174.131 C 206.000 174.308,206.879 173.551,207.954 172.447 C 209.029 171.344,210.019 170.552,210.154 170.687 C 210.289 170.823,210.400 170.715,210.400 170.448 C 210.400 170.016,213.254 166.874,218.311 161.737 C 219.251 160.782,220.297 160.000,220.634 160.000 C 220.971 160.000,221.136 159.820,221.000 159.600 C 220.864 159.380,221.033 159.200,221.376 159.200 C 221.719 159.200,221.957 159.065,221.905 158.900 C 221.780 158.509,224.909 155.380,225.300 155.505 C 225.465 155.557,225.600 155.319,225.600 154.976 C 225.600 154.633,225.780 154.464,226.000 154.600 C 226.220 154.736,226.400 154.642,226.400 154.392 C 226.400 153.815,229.247 151.044,230.020 150.868 C 230.537 150.751,233.779 147.541,243.063 137.956 C 244.638 136.330,246.303 134.735,246.763 134.412 C 247.223 134.088,247.602 133.638,247.604 133.412 C 247.607 133.185,252.050 128.590,257.477 123.200 C 262.905 117.810,267.112 113.760,266.826 114.200 C 266.541 114.640,267.829 113.425,269.688 111.500 C 271.548 109.575,273.257 108.000,273.486 108.000 C 273.715 108.000,274.117 107.741,274.380 107.424 C 274.643 107.107,275.097 106.939,275.389 107.051 C 275.680 107.163,276.038 107.062,276.183 106.827 C 276.328 106.592,276.851 106.400,277.344 106.400 C 278.523 106.400,280.331 105.542,280.597 104.855 C 280.740 104.489,280.604 104.390,280.184 104.551 C 279.824 104.689,279.662 104.623,279.803 104.395 C 280.230 103.705,281.536 103.969,281.800 104.800 M0.120 328.200 C 0.214 335.972,0.400 339.393,0.785 340.400 C 1.675 342.731,1.899 343.341,2.400 344.800 C 3.180 347.072,3.441 347.708,4.343 349.538 C 4.814 350.494,5.200 351.529,5.200 351.838 C 5.200 352.147,5.380 352.400,5.600 352.400 C 5.820 352.400,6.000 352.760,6.000 353.200 C 6.000 353.640,6.180 354.000,6.400 354.000 C 6.620 354.000,6.800 354.360,6.800 354.800 C 6.800 355.240,6.980 355.600,7.200 355.600 C 7.420 355.600,7.600 355.960,7.600 356.400 C 7.600 356.840,7.746 357.200,7.925 357.200 C 8.104 357.200,8.499 357.834,8.803 358.609 C 9.107 359.383,9.681 360.311,10.078 360.671 C 10.475 361.030,10.800 361.538,10.800 361.800 C 10.800 362.062,11.160 362.602,11.600 363.000 C 12.040 363.398,12.400 363.893,12.400 364.099 C 12.400 365.573,22.380 376.599,28.000 381.334 C 29.870 382.909,31.544 384.424,31.720 384.699 C 31.896 384.975,32.273 385.200,32.558 385.200 C 32.843 385.200,33.402 385.560,33.800 386.000 C 34.198 386.440,34.738 386.800,35.000 386.800 C 35.262 386.800,35.802 387.160,36.200 387.600 C 36.598 388.040,37.144 388.400,37.413 388.400 C 37.682 388.400,38.121 388.664,38.389 388.987 C 38.891 389.592,50.790 395.600,51.487 395.600 C 51.701 395.600,52.476 395.899,53.208 396.264 C 53.940 396.629,55.723 397.249,57.170 397.641 C 58.616 398.033,61.059 398.724,62.599 399.177 L 65.397 400.000 200.000 400.000 L 334.603 400.000 337.401 399.177 C 338.941 398.724,341.384 398.033,342.830 397.641 C 344.277 397.249,346.060 396.629,346.792 396.264 C 347.524 395.899,348.299 395.600,348.513 395.600 C 349.210 395.600,361.109 389.592,361.611 388.987 C 361.879 388.664,362.318 388.400,362.587 388.400 C 362.856 388.400,363.402 388.040,363.800 387.600 C 364.198 387.160,364.738 386.800,365.000 386.800 C 365.262 386.800,365.802 386.440,366.200 386.000 C 366.598 385.560,367.157 385.200,367.442 385.200 C 367.727 385.200,368.104 384.975,368.280 384.699 C 368.456 384.424,370.130 382.909,372.000 381.334 C 377.620 376.599,387.600 365.573,387.600 364.099 C 387.600 363.893,387.960 363.398,388.400 363.000 C 388.840 362.602,389.200 362.062,389.200 361.800 C 389.200 361.538,389.525 361.030,389.922 360.671 C 390.319 360.311,390.893 359.383,391.197 358.609 C 391.501 357.834,391.896 357.200,392.075 357.200 C 392.254 357.200,392.400 356.840,392.400 356.400 C 392.400 355.960,392.580 355.600,392.800 355.600 C 393.020 355.600,393.200 355.240,393.200 354.800 C 393.200 354.360,393.380 354.000,393.600 354.000 C 393.820 354.000,394.000 353.640,394.000 353.200 C 394.000 352.760,394.180 352.400,394.400 352.400 C 394.620 352.400,394.800 352.135,394.800 351.812 C 394.800 351.489,395.160 350.583,395.600 349.800 C 396.040 349.017,396.400 348.057,396.400 347.668 C 396.400 347.279,396.562 346.789,396.759 346.580 C 396.957 346.371,397.722 344.490,398.459 342.400 L 399.800 338.600 399.902 328.000 C 399.994 318.494,399.943 317.480,399.402 318.176 C 399.071 318.604,398.786 319.234,398.769 319.576 C 398.753 319.919,398.660 320.560,398.563 321.000 C 398.294 322.223,398.304 325.067,398.580 325.938 C 398.716 326.366,398.596 326.964,398.314 327.267 C 397.655 327.975,397.511 328.612,397.544 330.686 C 397.558 331.613,397.414 332.468,397.223 332.586 C 397.032 332.704,396.969 333.160,397.084 333.600 C 397.199 334.039,396.995 334.854,396.630 335.411 C 396.265 335.967,396.065 336.582,396.186 336.777 C 396.306 336.972,396.206 337.198,395.963 337.279 C 395.720 337.360,395.460 338.051,395.386 338.813 C 395.312 339.576,395.226 340.200,395.195 340.200 C 395.164 340.200,395.077 340.525,395.001 340.922 C 394.728 342.363,393.397 345.807,393.003 346.094 C 392.781 346.256,392.730 346.391,392.888 346.394 C 393.046 346.397,392.725 347.064,392.174 347.876 C 391.623 348.688,391.258 349.575,391.363 349.847 C 391.467 350.119,391.293 350.557,390.976 350.820 C 390.659 351.083,390.400 351.555,390.400 351.869 C 390.400 352.608,389.218 354.914,388.644 355.294 C 388.400 355.456,388.369 355.591,388.575 355.594 C 388.782 355.597,388.553 355.971,388.067 356.424 C 387.580 356.877,387.304 357.445,387.453 357.686 C 387.615 357.948,387.539 358.009,387.262 357.838 C 386.849 357.583,386.620 358.061,386.753 358.900 C 386.779 359.065,386.609 359.200,386.376 359.200 C 386.143 359.200,386.057 359.369,386.185 359.575 C 386.312 359.782,386.156 360.097,385.837 360.275 C 385.279 360.588,385.200 360.749,385.200 361.581 C 385.200 361.790,384.615 362.555,383.900 363.281 C 381.886 365.325,380.908 366.583,381.600 366.240 C 381.930 366.076,381.525 366.540,380.700 367.271 C 379.875 368.002,379.200 368.815,379.200 369.077 C 379.200 369.340,378.873 369.790,378.474 370.077 C 378.074 370.365,377.625 370.926,377.476 371.325 C 377.328 371.724,377.024 371.939,376.803 371.802 C 376.581 371.665,376.400 371.844,376.400 372.200 C 376.400 372.556,376.265 372.770,376.100 372.675 C 375.935 372.580,375.350 372.954,374.800 373.504 C 374.250 374.055,374.053 374.364,374.362 374.191 C 374.737 373.981,374.829 374.030,374.638 374.338 C 374.481 374.592,374.171 374.800,373.948 374.800 C 373.374 374.800,372.389 375.855,372.686 376.152 C 372.822 376.289,372.728 376.400,372.476 376.400 C 372.225 376.400,371.446 377.030,370.745 377.800 C 370.045 378.570,369.250 379.200,368.979 379.200 C 368.707 379.200,368.381 379.472,368.254 379.804 C 368.127 380.136,367.882 380.366,367.711 380.315 C 367.540 380.265,366.784 380.795,366.031 381.493 C 365.279 382.191,364.525 382.677,364.356 382.573 C 364.187 382.469,363.864 382.702,363.637 383.092 C 363.410 383.481,363.219 383.674,363.212 383.519 C 363.205 383.365,362.727 383.676,362.150 384.212 C 361.572 384.747,360.953 385.095,360.774 384.984 C 360.595 384.874,360.287 385.073,360.089 385.427 C 359.890 385.782,359.564 386.101,359.364 386.136 C 359.164 386.171,359.035 386.305,359.078 386.433 C 359.121 386.562,358.941 386.667,358.678 386.667 C 357.872 386.667,355.200 388.067,355.200 388.488 C 355.200 388.707,354.945 388.788,354.633 388.668 C 354.321 388.548,353.963 388.721,353.836 389.051 C 353.709 389.381,353.439 389.548,353.235 389.422 C 353.031 389.296,352.561 389.496,352.191 389.866 C 351.820 390.237,351.213 390.562,350.841 390.590 C 350.469 390.617,349.738 390.938,349.217 391.303 C 348.696 391.668,348.118 391.873,347.932 391.758 C 347.746 391.643,347.320 391.823,346.985 392.158 C 346.651 392.492,346.112 392.664,345.788 392.540 C 345.465 392.416,345.200 392.497,345.200 392.720 C 345.200 393.190,341.657 394.482,341.178 394.186 C 341.000 394.077,340.735 394.182,340.587 394.421 C 340.440 394.659,340.067 394.758,339.760 394.640 C 339.452 394.522,339.200 394.583,339.200 394.775 C 339.200 394.968,338.812 395.024,338.337 394.900 C 337.709 394.735,337.560 394.812,337.788 395.180 C 338.018 395.552,337.876 395.615,337.250 395.416 C 336.739 395.254,336.400 395.320,336.400 395.581 C 336.400 395.826,335.965 395.937,335.400 395.834 C 334.850 395.735,334.400 395.833,334.400 396.053 C 334.400 396.274,334.065 396.348,333.656 396.218 C 333.235 396.084,332.703 396.235,332.428 396.566 C 332.076 396.990,331.445 397.089,330.125 396.928 C 328.888 396.776,328.207 396.866,327.995 397.208 C 327.824 397.484,327.170 397.693,326.542 397.671 C 325.914 397.649,323.960 397.670,322.200 397.716 C 318.048 397.825,82.472 397.826,78.000 397.717 C 76.130 397.671,74.086 397.651,73.458 397.672 C 72.830 397.693,72.180 397.491,72.013 397.222 C 71.815 396.901,71.190 396.816,70.196 396.974 C 69.157 397.139,68.383 397.019,67.730 396.591 C 67.206 396.247,66.615 396.067,66.416 396.190 C 66.218 396.313,65.950 396.243,65.821 396.034 C 65.692 395.826,65.140 395.736,64.593 395.835 C 64.034 395.937,63.600 395.826,63.600 395.581 C 63.600 395.320,63.261 395.254,62.750 395.416 C 62.178 395.597,61.989 395.541,62.174 395.243 C 62.333 394.984,62.147 394.787,61.724 394.769 C 61.326 394.753,60.685 394.663,60.300 394.569 C 59.915 394.476,59.285 394.324,58.900 394.231 C 58.515 394.137,58.200 394.033,58.200 393.998 C 58.200 393.963,57.674 393.849,57.031 393.744 C 56.388 393.640,55.488 393.346,55.031 393.092 C 54.574 392.838,54.065 392.668,53.900 392.715 C 53.735 392.762,53.600 392.620,53.600 392.400 C 53.600 392.180,53.465 392.021,53.300 392.047 C 53.135 392.073,52.910 392.060,52.800 392.017 C 52.690 391.974,52.276 391.877,51.880 391.802 C 51.484 391.727,50.882 391.434,50.541 391.151 C 50.201 390.869,49.552 390.581,49.100 390.512 C 48.648 390.443,48.050 390.075,47.772 389.694 C 47.493 389.313,47.139 389.127,46.985 389.282 C 46.831 389.436,46.442 389.299,46.120 388.977 C 45.799 388.656,45.370 388.495,45.168 388.620 C 44.965 388.745,44.800 388.700,44.800 388.520 C 44.800 388.099,43.330 387.179,42.361 386.992 C 41.949 386.913,41.157 386.394,40.602 385.838 C 40.046 385.283,39.337 384.926,39.026 385.045 C 38.698 385.171,38.184 384.842,37.805 384.264 C 37.445 383.714,36.397 382.909,35.475 382.474 C 34.554 382.039,33.390 381.124,32.888 380.442 C 32.386 379.759,31.711 379.200,31.388 379.200 C 31.065 379.200,30.800 379.020,30.800 378.800 C 30.800 378.580,30.440 378.400,30.000 378.400 C 29.560 378.400,29.200 378.231,29.200 378.025 C 29.200 377.819,27.670 376.103,25.800 374.211 C 23.930 372.320,22.400 370.611,22.400 370.413 C 22.400 370.216,22.040 369.940,21.600 369.800 C 21.160 369.660,20.800 369.278,20.800 368.949 C 20.800 368.621,20.640 368.451,20.445 368.572 C 20.250 368.693,20.115 368.478,20.145 368.096 C 20.175 367.713,19.970 367.447,19.689 367.504 C 19.408 367.561,19.062 367.291,18.920 366.904 C 18.779 366.517,18.148 365.698,17.518 365.084 C 16.888 364.470,16.497 363.767,16.648 363.522 C 16.805 363.268,16.743 363.188,16.506 363.335 C 16.275 363.477,15.775 362.934,15.389 362.121 C 15.005 361.312,14.362 360.296,13.959 359.864 C 13.557 359.432,13.314 358.940,13.419 358.770 C 13.524 358.599,13.076 357.876,12.424 357.162 C 11.771 356.447,11.330 355.714,11.442 355.531 C 11.555 355.349,11.427 355.200,11.157 355.200 C 10.887 355.200,10.788 355.078,10.937 354.930 C 11.086 354.781,10.814 354.241,10.334 353.730 C 9.854 353.218,9.578 352.800,9.722 352.800 C 9.866 352.800,9.507 351.945,8.923 350.900 C 8.340 349.855,7.894 348.955,7.931 348.900 C 7.969 348.845,7.986 348.755,7.969 348.700 C 7.953 348.645,7.879 348.330,7.806 348.000 C 7.734 347.670,7.260 346.500,6.755 345.400 C 6.249 344.300,5.879 343.246,5.932 343.059 C 6.097 342.471,5.558 341.179,5.232 341.380 C 5.061 341.486,4.905 341.014,4.886 340.331 C 4.866 339.649,4.659 338.899,4.425 338.665 C 4.191 338.431,4.000 337.736,4.000 337.120 C 4.000 336.504,3.820 336.000,3.600 336.000 C 3.380 336.000,3.200 335.809,3.200 335.576 C 3.200 335.343,3.425 335.280,3.700 335.435 C 4.100 335.661,4.100 335.610,3.700 335.179 C 3.425 334.882,3.200 334.266,3.200 333.809 C 3.200 333.352,2.963 332.623,2.674 332.189 C 2.069 331.280,1.870 329.472,2.412 329.808 C 2.612 329.931,2.532 329.341,2.234 328.496 C 1.936 327.652,1.681 325.799,1.668 324.380 C 1.655 322.961,1.558 321.440,1.453 321.000 C 1.347 320.560,1.247 319.919,1.231 319.576 C 1.214 319.234,0.928 318.604,0.595 318.176 C 0.051 317.479,0.003 318.497,0.120 328.200 " stroke="none" fill="#2c2c2c" fill-rule="evenodd"></path><path id="path2" d="" stroke="none" fill="#343830" fill-rule="evenodd"></path><path id="path3" d="" stroke="none" fill="#343830" fill-rule="evenodd"></path><path id="path4" d="" stroke="none" fill="#343830" fill-rule="evenodd"></path></g></svg>